<svg
    width="142"
    height="142"
    viewBox="0 0 142 142"
    fill="none"
    xmlns="http://www.w3.org/2000/svg"
  >
    <path
      d="M83.1501 45.82V35C83.1501 34.2494 82.8519 33.5296 82.3212 32.9989C81.7905 32.4681 81.0706 32.17 80.3201 32.17H61.4101C60.6595 32.17 59.9397 32.4681 59.409 32.9989C58.8782 33.5296 58.5801 34.2494 58.5801 35V45.82"
      stroke="#0A99D7"
      strokeWidth="5"
      strokeMiterlimit="10"
    />
    <path
      d="M112.32 43.69H29.4101C27.8471 43.69 26.5801 44.957 26.5801 46.52V100.3C26.5801 101.863 27.8471 103.13 29.4101 103.13H112.32C113.883 103.13 115.15 101.863 115.15 100.3V46.52C115.15 44.957 113.883 43.69 112.32 43.69Z"
      fill="#E71D73"
    />
    <path
      d="M109.89 43.88H31.8398C30.3211 43.88 29.0898 45.1112 29.0898 46.63V77.14C29.0898 78.6588 30.3211 79.89 31.8398 79.89H109.89C111.409 79.89 112.64 78.6588 112.64 77.14V46.63C112.64 45.1112 111.409 43.88 109.89 43.88Z"
      fill="white"
      stroke="#1D1D1B"
      strokeWidth="5"
      strokeLinecap="round"
      strokeLinejoin="round"
    />
    <path
      d="M67.3999 75.8V84.46C67.3999 85.2277 68.0222 85.85 68.7899 85.85H72.9499C73.7176 85.85 74.3399 85.2277 74.3399 84.46V75.8C74.3399 75.0323 73.7176 74.41 72.9499 74.41H68.7899C68.0222 74.41 67.3999 75.0323 67.3999 75.8Z"
      fill="#0D9BD8"
    />
  </svg>