<svg
    width="142"
    height="142"
    viewBox="0 0 142 142"
    fill="none"
    xmlns="http://www.w3.org/2000/svg"
  >
    <path
      d="M23.6001 65.25H118.12C118.916 65.25 119.679 65.5661 120.241 66.1287C120.804 66.6913 121.12 67.4544 121.12 68.25V104.74H20.5801V68.27C20.5801 67.4743 20.8961 66.7113 21.4588 66.1487C22.0214 65.5861 22.7844 65.27 23.5801 65.27L23.6001 65.25Z"
      fill="#E71D73"
    />
    <path
      d="M23.6001 94.05H118.12C118.916 94.05 119.679 94.3661 120.241 94.9287C120.804 95.4913 121.12 96.2544 121.12 97.05V113.78H20.5801V97.07C20.5801 96.2744 20.8961 95.5113 21.4588 94.9487C22.0214 94.3861 22.7844 94.07 23.5801 94.07L23.6001 94.05Z"
      fill="#0D9BD8"
    />
    <path
      d="M85.15 74.19L99.47 62.19C102.705 59.4748 105.064 55.8632 106.25 51.81L111.75 47.2L95.59 27.93L90.09 32.54L84.09 31.54C83.0625 31.3627 82.0087 31.4113 81.0019 31.6824C79.9951 31.9535 79.0595 32.4407 78.26 33.11L66.21 43.2"
      fill="white"
    />
    <path
      d="M85.15 74.19L99.47 62.19C102.705 59.4748 105.064 55.8632 106.25 51.81L111.75 47.2L95.59 27.93L90.09 32.54L84.09 31.54C83.0625 31.3627 82.0087 31.4113 81.0019 31.6824C79.9951 31.9535 79.0595 32.4407 78.26 33.11L66.21 43.2"
      stroke="#1D1D1B"
      strokeWidth="5"
      strokeLinecap="round"
      strokeLinejoin="round"
    />
    <path
      d="M74.8702 36.89L40.6602 56.65L56.2102 83.58H80.2002L96.4202 74.22L74.8702 36.89Z"
      fill="white"
      stroke="#1D1D1B"
      strokeWidth="5"
      strokeLinecap="round"
      strokeLinejoin="round"
    />
    <path
      d="M73.3801 77.41L69.5601 70.8C69.4576 70.6215 69.3208 70.465 69.1575 70.3396C68.9942 70.2142 68.8078 70.1224 68.6088 70.0694C68.4099 70.0164 68.2024 70.0033 67.9984 70.0309C67.7944 70.0584 67.5979 70.1261 67.4201 70.23L60.8101 74C60.4492 74.2092 60.1857 74.5527 60.077 74.9555C59.9683 75.3582 60.0234 75.7877 60.2301 76.15L64.0501 82.76C64.1873 82.9997 64.3853 83.1989 64.6241 83.3376C64.8629 83.4763 65.134 83.5496 65.4101 83.55C65.6883 83.548 65.9609 83.472 66.2001 83.33L72.8101 79.52C73.1587 79.3095 73.4126 78.9726 73.5188 78.5795C73.625 78.1863 73.5753 77.7674 73.3801 77.41Z"
      fill="#0285C5"
    />
    <path
      d="M58.4405 54.6712L51.824 58.4912C51.0731 58.9247 50.8158 59.8849 51.2494 60.6358L55.0694 67.2523C55.5029 68.0032 56.4631 68.2605 57.214 67.8269L63.8305 64.0069C64.5814 63.5734 64.8387 62.6132 64.4051 61.8623L60.5851 55.2458C60.1516 54.4949 59.1914 54.2376 58.4405 54.6712Z"
      fill="#E71D73"
    />
    <path
      d="M90.09 32.54L84.09 31.54C83.0625 31.3627 82.0087 31.4113 81.0019 31.6824C79.9951 31.9535 79.0595 32.4407 78.26 33.11L63.44 45.53C63.2587 45.6812 63.1092 45.8668 63 46.0761C62.8908 46.2853 62.8241 46.5141 62.8036 46.7492C62.7832 46.9844 62.8094 47.2212 62.8809 47.4462C62.9523 47.6712 63.0676 47.8798 63.22 48.06C64.1394 49.1534 65.4552 49.837 66.8784 49.9608C68.3015 50.0845 69.7156 49.6383 70.81 48.72L77.81 42.84C78.1351 42.5592 78.5504 42.4047 78.98 42.4047C79.4096 42.4047 79.8248 42.5592 80.15 42.84C82.0805 44.57 84.5702 45.5457 87.162 45.5879C89.7539 45.6302 92.2741 44.7362 94.26 43.07"
      fill="white"
    />
    <path
      d="M90.09 32.54L84.09 31.54C83.0625 31.3627 82.0087 31.4113 81.0019 31.6824C79.9951 31.9535 79.0595 32.4407 78.26 33.11L63.44 45.53C63.2587 45.6812 63.1092 45.8668 63 46.0761C62.8908 46.2853 62.8241 46.5141 62.8036 46.7492C62.7832 46.9844 62.8094 47.2212 62.8809 47.4462C62.9523 47.6712 63.0676 47.8798 63.22 48.06C64.1394 49.1534 65.4552 49.837 66.8784 49.9608C68.3015 50.0845 69.7156 49.6383 70.81 48.72L77.81 42.84C78.1351 42.5592 78.5504 42.4047 78.98 42.4047C79.4096 42.4047 79.8248 42.5592 80.15 42.84C82.0805 44.57 84.5701 45.5457 87.162 45.5879C89.7539 45.6302 92.2741 44.7362 94.26 43.07"
      stroke="#1D1D1B"
      strokeWidth="5"
      strokeLinecap="round"
      strokeLinejoin="round"
    />
    <path
      d="M40.6602 83.59H97.2502"
      stroke="#1D1D1B"
      strokeWidth="5"
      strokeLinecap="round"
      strokeLinejoin="round"
    />
  </svg>