<svg
    width="142"
    height="142"
    viewBox="0 0 142 142"
    fill="none"
    xmlns="http://www.w3.org/2000/svg"
  >
    <path
      d="M55.4658 66.6847H72.833C76.2421 66.6847 79.0058 69.4485 79.0058 72.8576V105.616H55.4658V66.6847Z"
      fill="#0D9BD8"
    />
    <mask
      id="mask0_285_1789"
      // style="mask-type:luminance"
      maskUnits="userSpaceOnUse"
      x="35"
      y="16"
      width="83"
      height="92"
    >
      <path
        d="M117.937 16.8889H35.5479V107.427H117.937V16.8889Z"
        fill="white"
      />
    </mask>
    <g mask="url(#mask0_285_1789)">
      <path
        d="M96.0766 47.3197V57.4585C96.0766 59.325 94.5635 60.8381 92.697 60.8381H84.586C82.9746 60.8367 81.5882 59.698 81.274 58.1174L80.4629 54.0788H84.2481C86.1123 54.0733 87.6222 52.5634 87.6277 50.6992V43.9401H92.697C94.5635 43.9401 96.0766 45.4532 96.0766 47.3197Z"
        fill="#E71D73"
      />
      <path
        d="M87.6275 43.9401V50.6992C87.622 52.5634 86.1121 54.0733 84.2479 54.0788H80.4627L79.2461 47.9787C79.0488 46.9867 79.3062 45.9586 79.9476 45.1765C80.589 44.3946 81.5467 43.9409 82.5581 43.9401H87.6275Z"
        fill="#0D9BD8"
      />
      <path
        d="M110.5 38.8707H118.949C119.882 38.8707 120.639 38.114 120.639 37.1809C120.639 36.2475 119.882 35.491 118.949 35.491V32.1114C118.949 30.2449 117.436 28.7318 115.57 28.7318H112.555L95.1501 20.8202C94.6362 18.5563 92.6448 16.9347 90.3237 16.8898C88.0027 16.845 85.9502 18.3886 85.3493 20.631L56.1934 28.7318H41.2184C39.9402 28.7233 38.7692 29.4451 38.2022 30.5906L36.5124 33.9702C35.9846 35.0176 36.0376 36.2637 36.6524 37.2625C37.2672 38.2614 38.3558 38.8701 39.5286 38.8707H44.5981V44.1901C44.5709 45.6275 45.4667 46.9208 46.8218 47.4008C47.5329 47.6406 48.0007 48.3207 47.9703 49.0705C47.9399 49.8204 47.4184 50.4603 46.6902 50.6417C45.962 50.823 45.2013 50.5023 44.8228 49.8543C44.3422 49.0776 43.3314 48.8233 42.5405 49.2802C41.7496 49.737 41.4649 50.7398 41.8978 51.5441C43.0323 53.4824 45.305 54.4455 47.4868 53.9126C49.6686 53.3796 51.2413 51.4773 51.3545 49.2343C51.4678 46.9912 50.0947 44.9401 47.9777 44.1901V38.8707H85.1533V42.2503H83.4635C81.9447 42.2506 80.5061 42.9318 79.5434 44.1065C78.5808 45.2813 78.1956 46.8258 78.4937 48.315L80.5215 58.4537C80.9785 60.6909 82.8748 62.3464 85.1533 62.4974V101.393H81.7737C81.1967 101.399 80.6251 101.504 80.0839 101.704C77.8675 102.524 76.7427 104.258 76.7042 108.152L76.9572 118.291H105.49C107.356 118.291 108.869 116.778 108.869 114.912V111.532C108.869 109.666 107.356 108.152 105.49 108.152H104.163V106.463C104.163 103.663 101.893 101.393 99.0931 101.393H95.292V62.217C97.3103 61.5034 98.6627 59.5991 98.6717 57.4585V47.3196C98.6627 45.179 97.3103 43.2747 95.292 42.5611V38.8707H110.5ZM108.81 32.1114V35.491H104.586L100.53 30.0836C99.8897 29.2356 98.8896 28.7355 97.8268 28.7318H95.292V24.5969L109.059 30.8492C108.895 31.25 108.811 31.6785 108.81 32.1114ZM95.292 32.1114H97.8268L100.361 35.491H95.292V32.1114ZM115.57 35.491H112.19V32.1114H115.57V35.491ZM85.1533 24.1964V28.7318H68.8265L85.1533 24.1964ZM39.5286 35.491L41.2184 32.1114H85.1533V35.491H39.5286ZM88.5328 21.9727C88.5328 21.0393 89.2894 20.2829 90.2226 20.2829C91.1559 20.2829 91.9124 21.0393 91.9124 21.9727V42.2503H88.5328V21.9727ZM82.1589 46.2483C82.4794 45.8574 82.9579 45.6305 83.4635 45.6298H86.843V50.6992C86.843 51.6326 86.0865 52.389 85.1533 52.389H82.7555L81.8075 47.6576C81.7064 47.1589 81.8356 46.6412 82.1589 46.2483ZM100.783 106.463V108.152H80.0839V106.463C80.0839 105.529 80.8404 104.773 81.7737 104.773H99.0931C100.026 104.773 100.783 105.529 100.783 106.463ZM88.5328 101.393V62.5279H91.9124V101.393H88.5328ZM95.292 57.4585C95.292 58.3917 94.5356 59.1483 93.6022 59.1483H85.4913C84.6874 59.1492 83.9942 58.5839 83.8336 57.7964L83.4314 55.7687H85.1533C87.953 55.7687 90.2226 53.4991 90.2226 50.6992V45.6298H93.6022C94.5356 45.6298 95.292 46.3864 95.292 47.3196V57.4585Z"
        fill="#1D1D1B"
      />
    </g>
    <path
      d="M45.8662 107.42V92.2114C45.8662 91.2781 46.6228 90.5216 47.556 90.5216H50.9357C51.8688 90.5216 52.6255 91.2781 52.6255 92.2114V107.42H45.8662Z"
      fill="white"
    />
    <path
      d="M24.6831 63.8037C24.6831 60.3946 27.4468 57.6309 30.8559 57.6309H53.8201C57.2293 57.6309 59.993 60.3946 59.993 63.8037V105.616H24.6831V63.8037Z"
      fill="#E71D73"
    />
    <path
      d="M21.0615 106.695C21.0615 105.599 21.9498 104.711 23.0456 104.711H74.4788V102.168C74.4788 101.072 75.3672 100.184 76.4629 100.184H107.804C108.9 100.184 109.789 101.072 109.789 102.168V110.143C109.789 111.239 108.9 112.127 107.804 112.127H23.0456C21.9498 112.127 21.0615 111.239 21.0615 110.143V106.695Z"
      fill="white"
    />
    <path
      fillRule="evenodd"
      clipRule="evenodd"
      d="M78.4472 108.159H105.82V104.152H78.4472V108.159ZM23.0456 104.711C21.9498 104.711 21.0615 105.599 21.0615 106.695V110.143C21.0615 111.239 21.9498 112.127 23.0456 112.127H107.804C108.9 112.127 109.789 111.239 109.789 110.143V102.168C109.789 101.072 108.9 100.184 107.804 100.184H76.4629C75.3672 100.184 74.4788 101.072 74.4788 102.168V104.711H23.0456Z"
      fill="#1D1D1B"
    />
    <path
      d="M37.6262 64.8739H32.5642C31.7119 64.8739 31.021 65.5648 31.021 66.4171V71.4791C31.021 72.3314 31.7119 73.0223 32.5642 73.0223H37.6262C38.4785 73.0223 39.1694 72.3314 39.1694 71.4791V66.4171C39.1694 65.5648 38.4785 64.8739 37.6262 64.8739Z"
      fill="white"
    />
    <path
      d="M51.2068 64.8739H46.1448C45.2925 64.8739 44.6016 65.5648 44.6016 66.4171V71.4791C44.6016 72.3314 45.2925 73.0223 46.1448 73.0223H51.2068C52.0591 73.0223 52.75 72.3314 52.75 71.4791V66.4171C52.75 65.5648 52.0591 64.8739 51.2068 64.8739Z"
      fill="white"
    />
    <path
      d="M37.6262 77.5492H32.5642C31.7119 77.5492 31.021 78.2401 31.021 79.0924V84.1544C31.021 85.0067 31.7119 85.6976 32.5642 85.6976H37.6262C38.4785 85.6976 39.1694 85.0067 39.1694 84.1544V79.0924C39.1694 78.2401 38.4785 77.5492 37.6262 77.5492Z"
      fill="white"
    />
    <path
      d="M51.2068 77.5492H46.1448C45.2925 77.5492 44.6016 78.2401 44.6016 79.0924V84.1544C44.6016 85.0067 45.2925 85.6976 46.1448 85.6976H51.2068C52.0591 85.6976 52.75 85.0067 52.75 84.1544V79.0924C52.75 78.2401 52.0591 77.5492 51.2068 77.5492Z"
      fill="white"
    />
    <path
      d="M51.2068 90.2245H46.1448C45.2925 90.2245 44.6016 90.9155 44.6016 91.7677V96.8297C44.6016 97.682 45.2925 98.3729 46.1448 98.3729H51.2068C52.0591 98.3729 52.75 97.682 52.75 96.8297V91.7677C52.75 90.9155 52.0591 90.2245 51.2068 90.2245Z"
      fill="white"
    />
    <path
      d="M37.6262 90.2245H32.5642C31.7119 90.2245 31.021 90.9155 31.021 91.7677V96.8297C31.021 97.682 31.7119 98.3729 32.5642 98.3729H37.6262C38.4785 98.3729 39.1694 97.682 39.1694 96.8297V91.7677C39.1694 90.9155 38.4785 90.2245 37.6262 90.2245Z"
      fill="white"
    />
    <path
      d="M70.2199 73.9278H65.158C64.3057 73.9278 63.6147 74.6187 63.6147 75.471V80.533C63.6147 81.3853 64.3057 82.0762 65.158 82.0762H70.2199C71.0722 82.0762 71.7632 81.3853 71.7632 80.533V75.471C71.7632 74.6187 71.0722 73.9278 70.2199 73.9278Z"
      fill="white"
    />
    <path
      d="M70.2199 87.5085H65.158C64.3057 87.5085 63.6147 88.1994 63.6147 89.0517V94.1137C63.6147 94.966 64.3057 95.6569 65.158 95.6569H70.2199C71.0722 95.6569 71.7632 94.966 71.7632 94.1137V89.0517C71.7632 88.1994 71.0722 87.5085 70.2199 87.5085Z"
      fill="white"
    />
  </svg>