<svg
    width="142"
    height="142"
    viewBox="0 0 142 142"
    fill="none"
    xmlns="http://www.w3.org/2000/svg"
  >
    <path
      d="M37.1099 76.05C42.6499 69.16 51.5699 61.76 62.6599 55.35C73.1199 49.35 83.8599 45.16 92.8899 43.65C102.3 42.08 108.89 43.65 111.35 47.92C113.81 52.19 111.88 58.69 105.82 66.05C99.9999 73.12 90.9999 80.34 80.5699 86.38"
      stroke="#E71D73"
      strokeWidth="5"
      strokeMiterlimit="10"
    />
    <path
      d="M91.6098 97.85C82.8498 96.18 72.6098 92.14 62.6598 86.38C40.3698 73.51 26.8498 56.62 31.8698 47.92C34.3698 43.6 40.9298 42.08 50.3398 43.65C59.3398 45.16 70.0998 49.31 80.5698 55.35C91.0398 61.39 99.9998 68.61 105.82 75.68C111.88 83.05 113.82 89.48 111.35 93.81C109.72 96.64 106.35 98.27 101.58 98.61"
      stroke="#0285C5"
      strokeWidth="5"
      strokeMiterlimit="10"
      strokeLinecap="round"
    />
    <path
      d="M80.8694 71.9977C81.4973 66.8833 77.8604 62.2282 72.746 61.6002C67.6316 60.9722 62.9764 64.6092 62.3485 69.7236C61.7205 74.838 65.3575 79.4931 70.4719 80.1211C75.5863 80.7491 80.2414 77.1121 80.8694 71.9977Z"
      stroke="#0285C5"
      strokeWidth="5"
      strokeMiterlimit="10"
      strokeLinecap="round"
    />
    <path
      d="M84.3102 38.22C87.5502 46.48 89.5202 57.97 89.5202 70.87C89.5202 96.6 81.6602 116.75 71.6102 116.75C61.5602 116.75 53.7002 96.6 53.7002 70.87C53.7002 45.14 61.5702 25 71.6102 25C74.4602 25 77.1402 26.62 79.5002 29.53"
      stroke="#1D1D1B"
      strokeWidth="5"
      strokeLinecap="round"
      strokeLinejoin="round"
    />
    <path
      d="M92.89 43.65C102.3 42.08 108.89 43.65 111.35 47.92C113.81 52.19 111.88 58.69 105.82 66.05C100 73.12 91 80.34 80.57 86.38C70.14 92.42 59.37 96.58 50.34 98.08C48.1339 98.466 45.8995 98.6667 43.66 98.68C37.82 98.68 33.73 97.02 31.87 93.81C30.41 91.28 30.52 88.05 31.96 84.44"
      stroke="#E71D73"
      strokeWidth="5"
      strokeMiterlimit="10"
    />
    <path
      d="M82.0798 38.22C84.6977 38.22 86.8198 36.0978 86.8198 33.48C86.8198 30.8622 84.6977 28.74 82.0798 28.74C79.462 28.74 77.3398 30.8622 77.3398 33.48C77.3398 36.0978 79.462 38.22 82.0798 38.22Z"
      fill="white"
      stroke="#1D1D1B"
      strokeWidth="5"
      strokeLinecap="round"
      strokeLinejoin="round"
    />
    <path
      d="M34.0598 84.94C36.6777 84.94 38.7998 82.8178 38.7998 80.2C38.7998 77.5822 36.6777 75.46 34.0598 75.46C31.442 75.46 29.3198 77.5822 29.3198 80.2C29.3198 82.8178 31.442 84.94 34.0598 84.94Z"
      fill="white"
      stroke="#E71D73"
      strokeWidth="5"
      strokeMiterlimit="10"
    />
    <path
      d="M105.82 75.68C111.88 83.05 113.82 89.48 111.35 93.81C109.72 96.64 106.35 98.27 101.58 98.61M91.5799 97.85C82.8199 96.18 72.5799 92.14 62.6299 86.38C40.3699 73.51 26.8499 56.62 31.8699 47.92C34.3699 43.6 40.9299 42.08 50.3399 43.65"
      stroke="#0285C5"
      strokeWidth="5"
      strokeMiterlimit="10"
      strokeLinecap="round"
    />
    <path
      d="M96.3401 103.42C98.9579 103.42 101.08 101.298 101.08 98.68C101.08 96.0622 98.9579 93.94 96.3401 93.94C93.7223 93.94 91.6001 96.0622 91.6001 98.68C91.6001 101.298 93.7223 103.42 96.3401 103.42Z"
      fill="white"
      stroke="#0D9BD8"
      strokeWidth="5"
      strokeMiterlimit="10"
      strokeLinecap="round"
    />
  </svg>