<svg
    width="142"
    height="142"
    viewBox="0 0 142 142"
    fill="none"
    xmlns="http://www.w3.org/2000/svg"
  >
    <path
      d="M22.6601 79.58H119.07C119.821 79.58 120.54 79.8782 121.071 80.4089C121.602 80.9396 121.9 81.6594 121.9 82.41V106.25H19.8301V82.42C19.8288 82.0475 19.901 81.6784 20.0426 81.3339C20.1843 80.9894 20.3925 80.6763 20.6554 80.4124C20.9184 80.1486 21.2308 79.9392 21.5748 79.7964C21.9188 79.6535 22.2876 79.58 22.6601 79.58Z"
      fill="#0085C4"
    />
    <path
      d="M28.9302 44.2C31.3792 46.6788 32.7488 50.0254 32.7402 53.51V91.42C32.7428 93.0609 33.3958 94.6338 34.5561 95.7941C35.7164 96.9543 37.2893 97.6074 38.9302 97.61H65.3102C66.9519 97.61 68.5263 96.9578 69.6872 95.797C70.848 94.6361 71.5002 93.0617 71.5002 91.42V44.56"
      fill="white"
    />
    <path
      d="M32.7402 70.43V91.43C32.7429 93.0709 33.3959 94.6438 34.5562 95.8041C35.7164 96.9643 37.2894 97.6174 38.9302 97.62H65.3102C66.9519 97.62 68.5264 96.9678 69.6872 95.807C70.8481 94.6461 71.5002 93.0717 71.5002 91.43V70.43H32.7402Z"
      fill="#0085C4"
    />
    <path
      d="M71.5002 44.56V91.42C71.5002 93.0617 70.848 94.6361 69.6872 95.797C68.5263 96.9578 66.9519 97.61 65.3102 97.61H38.9302C37.2893 97.6074 35.7164 96.9543 34.5561 95.7941C33.3958 94.6338 32.7428 93.0609 32.7402 91.42V53.51C32.7488 50.0254 31.3792 46.6788 28.9302 44.2H71.5002V44.56Z"
      stroke="#1D1D1B"
      strokeWidth="5"
      strokeLinecap="round"
      strokeLinejoin="round"
    />
    <path
      d="M60.5801 52.14H68.7701"
      stroke="#1D1D1B"
      strokeWidth="5"
      strokeLinecap="round"
      strokeLinejoin="round"
    />
    <path
      d="M63.3599 61.29H68.7699"
      stroke="#1D1D1B"
      strokeWidth="5"
      strokeLinecap="round"
      strokeLinejoin="round"
    />
    <path
      d="M63.3599 70.43H68.7699"
      stroke="#1D1D1B"
      strokeWidth="5"
      strokeLinecap="round"
      strokeLinejoin="round"
    />
    <path
      d="M63.3599 79.58H68.7699"
      stroke="#1D1D1B"
      strokeWidth="5"
      strokeLinecap="round"
      strokeLinejoin="round"
    />
    <path
      d="M60.5801 88.73H68.7701"
      stroke="#1D1D1B"
      strokeWidth="5"
      strokeLinecap="round"
      strokeLinejoin="round"
    />
    <path
      d="M45.6102 81.27C45.2755 81.272 44.9478 81.1746 44.6685 80.9901C44.3893 80.8056 44.1711 80.5423 44.0417 80.2337C43.9122 79.9251 43.8773 79.585 43.9414 79.2565C44.0055 78.928 44.1657 78.6259 44.4016 78.3886C44.6376 78.1512 44.9387 77.9893 45.2668 77.9232C45.5949 77.8572 45.9352 77.8901 46.2446 78.0177C46.554 78.1453 46.8185 78.3619 47.0046 78.6401C47.1908 78.9182 47.2902 79.2453 47.2902 79.58C47.2902 80.0265 47.1135 80.4548 46.7987 80.7715C46.4839 81.0881 46.0566 81.2674 45.6102 81.27Z"
      fill="white"
    />
    <path
      d="M53.0001 89.33C52.6658 89.33 52.3391 89.2309 52.0611 89.0452C51.7832 88.8595 51.5666 88.5955 51.4387 88.2867C51.3108 87.9779 51.2773 87.6381 51.3425 87.3103C51.4077 86.9825 51.5687 86.6813 51.805 86.445C52.0414 86.2086 52.3425 86.0477 52.6704 85.9825C52.9982 85.9173 53.338 85.9507 53.6468 86.0786C53.9556 86.2066 54.2195 86.4232 54.4052 86.7011C54.5909 86.979 54.6901 87.3058 54.6901 87.64C54.6901 88.0882 54.512 88.5181 54.1951 88.835C53.8781 89.1519 53.4483 89.33 53.0001 89.33Z"
      fill="white"
    />
    <path
      d="M40.8701 91.71C40.5367 91.71 40.2107 91.6113 39.9333 91.4265C39.6558 91.2417 39.4392 90.9789 39.3107 90.6713C39.1822 90.3636 39.1476 90.0249 39.2112 89.6976C39.2748 89.3703 39.4338 89.0692 39.6682 88.832C39.9025 88.5949 40.2018 88.4324 40.5283 88.3649C40.8548 88.2975 41.1939 88.3281 41.5031 88.453C41.8122 88.5778 42.0775 88.7913 42.2656 89.0666C42.4536 89.3419 42.5561 89.6666 42.5601 90C42.5627 90.2236 42.5209 90.4455 42.4372 90.6529C42.3535 90.8602 42.2294 91.0489 42.0722 91.208C41.915 91.367 41.7278 91.4933 41.5214 91.5795C41.3151 91.6656 41.0937 91.71 40.8701 91.71Z"
      fill="white"
    />
    <path
      d="M113.61 85.85L98.3799 56C98.1866 55.6114 98.0841 55.184 98.0799 54.75V38.56H85.1899V54.74C85.1904 55.1746 85.0876 55.603 84.8899 55.99L69.6699 85.85C69.0395 87.0823 68.7362 88.4558 68.7891 89.839C68.842 91.2222 69.2494 92.5685 69.9722 93.749C70.6949 94.9295 71.7088 95.9045 72.9166 96.5806C74.1245 97.2567 75.4857 97.6111 76.8699 97.61H106.41C107.793 97.6083 109.153 97.2521 110.359 96.5753C111.565 95.8986 112.578 94.9238 113.3 93.7442C114.022 92.5646 114.43 91.2196 114.484 89.8375C114.538 88.4555 114.237 87.0826 113.61 85.85Z"
      fill="white"
    />
    <path
      d="M102.67 64.4H80.5999L69.6699 85.85C69.0395 87.0823 68.7362 88.4558 68.7891 89.839C68.842 91.2222 69.2494 92.5685 69.9722 93.749C70.6949 94.9295 71.7088 95.9045 72.9166 96.5806C74.1245 97.2567 75.4857 97.6111 76.8699 97.61H106.41C107.793 97.6083 109.153 97.2521 110.359 96.5753C111.565 95.8986 112.578 94.9238 113.3 93.7442C114.022 92.5646 114.43 91.2196 114.484 89.8375C114.538 88.4555 114.237 87.0826 113.61 85.85L102.67 64.4Z"
      fill="#E71D73"
    />
    <path
      d="M113.61 85.85L98.3799 56C98.1866 55.6114 98.0841 55.184 98.0799 54.75V38.56H85.1899V54.74C85.1904 55.1746 85.0876 55.603 84.8899 55.99L69.6699 85.85C69.0395 87.0823 68.7362 88.4558 68.7891 89.839C68.842 91.2222 69.2494 92.5685 69.9722 93.749C70.6949 94.9295 71.7088 95.9045 72.9166 96.5806C74.1245 97.2567 75.4857 97.6111 76.8699 97.61H106.41C107.793 97.6083 109.153 97.2521 110.359 96.5753C111.565 95.8986 112.578 94.9238 113.3 93.7442C114.022 92.5646 114.43 91.2196 114.484 89.8375C114.538 88.4555 114.237 87.0826 113.61 85.85Z"
      stroke="#1D1D1B"
      strokeWidth="5"
      strokeLinecap="round"
      strokeLinejoin="round"
    />
    <path
      d="M100.82 84.72C100.49 84.7199 100.166 84.6223 99.8911 84.4394C99.6157 84.2565 99.4005 83.9965 99.2722 83.6918C99.144 83.3872 99.1085 83.0514 99.1701 82.7267C99.2317 82.4019 99.3878 82.1026 99.6188 81.8661C99.8498 81.6297 100.145 81.4666 100.469 81.3973C100.792 81.328 101.128 81.3557 101.436 81.4767C101.743 81.5977 102.008 81.8068 102.198 82.0778C102.387 82.3488 102.492 82.6695 102.5 83C102.504 83.2236 102.464 83.4458 102.381 83.6536C102.299 83.8615 102.176 84.0509 102.019 84.2109C101.863 84.3709 101.677 84.4983 101.471 84.5857C101.265 84.673 101.044 84.7187 100.82 84.72Z"
      fill="white"
    />
    <path
      d="M93.3201 76.69C92.9855 76.692 92.6577 76.5946 92.3785 76.4101C92.0993 76.2256 91.8811 75.9623 91.7517 75.6537C91.6222 75.3451 91.5873 75.005 91.6514 74.6765C91.7155 74.348 91.8756 74.0459 92.1116 73.8086C92.3475 73.5712 92.6486 73.4093 92.9767 73.3432C93.3048 73.2772 93.6451 73.3101 93.9545 73.4377C94.2639 73.5653 94.5285 73.7819 94.7146 74.0601C94.9007 74.3382 95.0001 74.6653 95.0001 75C95.0014 75.2215 94.959 75.441 94.8751 75.646C94.7913 75.851 94.6677 76.0374 94.5116 76.1944C94.3555 76.3515 94.1698 76.4761 93.9653 76.5612C93.7609 76.6462 93.5416 76.69 93.3201 76.69Z"
      fill="white"
    />
    <path
      d="M81.7198 89.33C81.3855 89.33 81.0588 89.2309 80.7809 89.0452C80.503 88.8595 80.2863 88.5955 80.1584 88.2867C80.0305 87.9779 79.997 87.6381 80.0623 87.3103C80.1275 86.9825 80.2884 86.6813 80.5248 86.445C80.7611 86.2086 81.0623 86.0477 81.3901 85.9825C81.7179 85.9173 82.0577 85.9507 82.3665 86.0786C82.6753 86.2066 82.9393 86.4232 83.125 86.7011C83.3107 86.979 83.4098 87.3058 83.4098 87.64C83.4098 88.0882 83.2317 88.5181 82.9148 88.835C82.5979 89.1519 82.168 89.33 81.7198 89.33Z"
      fill="white"
    />
    <path
      d="M27.23 41.22V38.31C27.23 37.5568 27.5292 36.8344 28.0618 36.3018C28.5944 35.7692 29.3168 35.47 30.07 35.47H70.37C71.1215 35.4726 71.8413 35.773 72.3717 36.3053C72.9021 36.8377 73.2 37.5585 73.2 38.31V41.53C73.2 41.9042 73.1258 42.2746 72.9817 42.62C72.8376 42.9653 72.6265 43.2786 72.3605 43.5418C72.0945 43.805 71.779 44.0128 71.4322 44.1533C71.0854 44.2937 70.7141 44.364 70.34 44.36L30 44.05C29.2607 44.0318 28.5577 43.7259 28.0404 43.1974C27.5231 42.6689 27.2324 41.9595 27.23 41.22Z"
      fill="white"
      stroke="#1D1D1B"
      strokeWidth="5.2"
      strokeLinecap="round"
      strokeLinejoin="round"
    />
    <path
      d="M83.46 41.22V38.31C83.46 37.5568 83.7592 36.8344 84.2918 36.3018C84.8244 35.7692 85.5468 35.47 86.3 35.47H97C97.7514 35.4726 98.4712 35.773 99.0017 36.3053C99.5321 36.8377 99.83 37.5585 99.83 38.31V41.53C99.83 42.2806 99.5318 43.0004 99.0011 43.5311C98.4703 44.0618 97.7505 44.36 97 44.36L86.31 44.05C85.937 44.0513 85.5674 43.9792 85.2224 43.8377C84.8773 43.6961 84.5635 43.488 84.2988 43.2253C84.0342 42.9625 83.8239 42.6501 83.68 42.3061C83.536 41.962 83.4613 41.593 83.46 41.22Z"
      fill="white"
      stroke="#1D1D1B"
      strokeWidth="5.2"
      strokeLinecap="round"
      strokeLinejoin="round"
    />
  </svg>