<svg
    width="142"
    height="142"
    viewBox="0 0 142 142"
    fill="none"
    xmlns="http://www.w3.org/2000/svg"
  >
    <path
      d="M70.8701 125.6C101.097 125.6 125.6 101.097 125.6 70.87C125.6 40.6435 101.097 16.14 70.8701 16.14C40.6436 16.14 16.1401 40.6435 16.1401 70.87C16.1401 101.097 40.6436 125.6 70.8701 125.6Z"
      fill="white"
      stroke="#1D1D1B"
      strokeWidth="5"
      strokeLinecap="round"
      strokeLinejoin="round"
    />
    <path
      d="M76.2798 30.93V64.53H109.88C109.88 55.6187 106.34 47.0724 100.039 40.7712C93.7374 34.47 85.1911 30.93 76.2798 30.93Z"
      fill="#BB105B"
    />
    <path
      d="M70.0001 70.81L41.6001 88.81C45.4973 94.9602 51.2864 99.6785 58.0962 102.255C64.9061 104.832 72.3686 105.127 79.3609 103.097C86.3532 101.067 92.4972 96.8214 96.8686 90.9987C101.24 85.1759 103.602 78.091 103.6 70.81H70.0001Z"
      fill="#0085C4"
    />
    <path
      d="M53.1201 41.75L70.0001 70.81V37.21C64.071 37.2043 58.2464 38.7708 53.1201 41.75Z"
      fill="#E71D73"
    />
    <path
      d="M50 43.85L70 70.85L53.12 41.75C52.04 42.3886 50.9982 43.0898 50 43.85Z"
      fill="#E71D73"
    />
    <path
      d="M70.0001 70.81L50.0001 43.81C43.7801 48.4212 39.3424 55.038 37.4367 62.5427C35.5309 70.0473 36.2739 77.9798 39.5401 85C40.1495 86.2974 40.8374 87.5564 41.6001 88.77L70.0001 70.77V70.81Z"
      fill="#E71D73"
    />
    <path
      d="M73.19 92.87C72.5594 92.8625 71.9306 92.8023 71.31 92.69C70.8543 92.6078 70.4129 92.4596 70 92.25L70.52 90.85C70.8332 91.0363 71.1693 91.1809 71.52 91.28C72.0535 91.4121 72.6004 91.4825 73.15 91.49V86.3C72.76 86.11 72.38 85.91 72 85.69C71.6336 85.4754 71.2974 85.2131 71 84.91C70.6954 84.6072 70.4541 84.2469 70.29 83.85C70.1001 83.3872 70.0082 82.8901 70.02 82.39C69.9889 81.5644 70.263 80.7563 70.79 80.12C71.4255 79.4649 72.2797 79.0663 73.19 79V77.28H74.49V79C75.0273 79.0165 75.5624 79.0767 76.09 79.18C76.4775 79.2718 76.8558 79.399 77.22 79.56L76.76 80.92C76.4629 80.7767 76.151 80.666 75.83 80.59C75.3914 80.4789 74.9422 80.4152 74.49 80.4V85.1C74.89 85.3 75.28 85.52 75.68 85.76C76.0669 85.9876 76.4259 86.2594 76.75 86.57C77.062 86.8827 77.3159 87.2484 77.5 87.65C77.7053 88.1016 77.8045 88.5942 77.79 89.09C77.8363 89.979 77.5553 90.8542 77 91.55C76.3501 92.2437 75.4745 92.6833 74.53 92.79V94.56H73.23L73.19 92.87ZM71.65 82.3C71.6407 82.5479 71.683 82.795 71.7742 83.0257C71.8654 83.2564 72.0036 83.4656 72.18 83.64C72.5714 84.012 73.0122 84.3283 73.49 84.58V80.39C73.2186 80.3988 72.9519 80.4627 72.7061 80.5779C72.4602 80.6931 72.2404 80.8571 72.06 81.06C71.7918 81.4176 71.6478 81.853 71.65 82.3ZM76.2 89.22C76.1895 88.9359 76.1215 88.657 76 88.4C75.89 88.1576 75.7414 87.9347 75.56 87.74C75.3725 87.5439 75.1608 87.3725 74.93 87.23C74.6761 87.064 74.4123 86.9137 74.14 86.78V91.45C74.6825 91.3802 75.1895 91.1425 75.59 90.77C75.7945 90.5687 75.9544 90.3267 76.0595 90.0597C76.1646 89.7927 76.2125 89.5067 76.2 89.22Z"
      fill="white"
    />
    <path
      d="M46.62 61.23H47.83C47.952 60.4536 48.195 59.7011 48.55 59C48.8424 58.4111 49.2466 57.8846 49.74 57.45C50.1962 57.0533 50.7264 56.7508 51.3 56.56C51.894 56.3658 52.5151 56.2679 53.14 56.27C53.7062 56.2609 54.2719 56.3044 54.83 56.4C55.251 56.464 55.6636 56.5746 56.06 56.73L55.66 58.13C55.3418 57.9809 55.0057 57.8734 54.66 57.81C54.1851 57.723 53.7028 57.6828 53.22 57.69C52.8029 57.6929 52.3885 57.7569 51.99 57.88C51.5912 58.015 51.2238 58.2293 50.91 58.51C50.5611 58.8234 50.27 59.1957 50.05 59.61C49.7808 60.1152 49.5887 60.6579 49.48 61.22H54.89L54.57 62.49H49.27C49.2611 62.6098 49.2611 62.7302 49.27 62.85V63.54C49.2611 63.6365 49.2611 63.7335 49.27 63.83H54.14L53.82 65.1H49.4C49.5465 66.1351 50.0277 67.0939 50.77 67.83C51.5093 68.4605 52.4592 68.789 53.43 68.75C53.8929 68.7551 54.3542 68.6945 54.8 68.57C55.1759 68.4753 55.5362 68.3271 55.87 68.13L56.25 69.38C55.827 69.6914 55.3375 69.9002 54.82 69.99C54.2578 70.1092 53.6847 70.1695 53.11 70.17C51.807 70.2248 50.5327 69.7773 49.55 68.92C48.5362 67.8906 47.9137 66.5395 47.79 65.1H46.27L46.62 63.83H47.67C47.67 63.72 47.67 63.62 47.67 63.54V62.85C47.67 62.75 47.67 62.63 47.67 62.49H46.27L46.62 61.23Z"
      fill="white"
    />
    <path
      d="M85.48 49.81H86.84V43C87.3534 42.8841 87.8749 42.8072 88.4 42.77C88.96 42.77 89.51 42.71 90.06 42.71C90.6447 42.7094 91.2278 42.7697 91.8 42.89C92.3448 42.9924 92.8624 43.2069 93.32 43.52C93.7716 43.8422 94.1359 44.2718 94.38 44.77C94.643 45.404 94.7783 46.0836 94.7783 46.77C94.7783 47.4564 94.643 48.136 94.38 48.77C94.1238 49.2829 93.7504 49.7283 93.29 50.07C92.821 50.4057 92.2912 50.6469 91.73 50.78C91.1629 50.9154 90.5829 50.9891 90 51H88.48V52.4H91.67V53.59H88.43V56.28H86.84V53.59H85.48V52.4H86.84V51H85.48V49.81ZM90.1 44C89.77 44 89.45 44 89.15 44C88.9081 44.0048 88.6671 44.0316 88.43 44.08V49.7H89.89C90.263 49.6969 90.6349 49.6567 91 49.58C91.3607 49.5058 91.7016 49.3558 92 49.14C92.3176 48.9076 92.5748 48.6024 92.75 48.25C92.9608 47.7867 93.0503 47.2774 93.01 46.77C93.0397 46.3222 92.9644 45.8736 92.79 45.46C92.6485 45.1292 92.4247 44.84 92.14 44.62C91.8439 44.3981 91.5024 44.2445 91.14 44.17C90.8006 44.0753 90.4518 44.0182 90.1 44Z"
      fill="white"
    />
  </svg>