<svg
    width="142"
    height="142"
    viewBox="0 0 142 142"
    fill="none"
    xmlns="http://www.w3.org/2000/svg"
  >
    <path
      d="M79.8699 43.69C83.5537 45.246 86.8024 47.6769 89.3345 50.772C91.8666 53.8671 93.6056 57.5331 94.4008 61.4521C95.1961 65.3711 95.0235 69.425 93.8982 73.2622C92.7728 77.0995 90.7286 80.6045 87.9427 83.4732C85.1568 86.342 81.7133 88.4881 77.9106 89.7254C74.108 90.9628 70.061 91.2541 66.1203 90.574C62.1797 89.894 58.4643 88.2632 55.2963 85.8229C52.1283 83.3826 49.6032 80.2066 47.9399 76.57"
      stroke="#0A99D7"
      strokeWidth="5"
      strokeMiterlimit="10"
    />
    <path
      d="M41.3999 75H63.7099C64.0815 75 64.4495 75.0732 64.7929 75.2154C65.1362 75.3576 65.4482 75.5661 65.711 75.8289C65.9738 76.0917 66.1823 76.4037 66.3245 76.747C66.4667 77.0904 66.5399 77.4584 66.5399 77.83V80.83H41.3999V75Z"
      fill="#E71D73"
    />
    <path
      d="M71.42 83.44C74.3913 83.4427 77.24 84.6249 79.3402 86.7269C81.4403 88.8289 82.62 91.6787 82.62 94.65V100.15H60.21V94.65C60.21 93.1779 60.4999 91.7202 61.0633 90.3601C61.6266 89.0001 62.4523 87.7643 63.4933 86.7233C64.5342 85.6824 65.77 84.8567 67.1301 84.2933C68.4901 83.73 69.9478 83.44 71.42 83.44Z"
      fill="#0D9BD8"
    />
    <path
      d="M71.4201 93.49C72.8505 93.49 74.0101 92.3304 74.0101 90.9C74.0101 89.4696 72.8505 88.31 71.4201 88.31C69.9897 88.31 68.8301 89.4696 68.8301 90.9C68.8301 92.3304 69.9897 93.49 71.4201 93.49Z"
      fill="white"
    />
    <path
      d="M47.82 96.44H95C95.7506 96.44 96.4704 96.7382 97.0011 97.2689C97.5318 97.7996 97.83 98.5194 97.83 99.27V105.57H45V99.27C45 98.5212 45.2968 97.8029 45.8253 97.2724C46.3539 96.742 47.0712 96.4426 47.82 96.44Z"
      fill="#E71D73"
    />
    <path
      d="M102.402 23.0646L97.8345 18.4967L84.5904 31.7408L89.1583 36.3088L102.402 23.0646Z"
      fill="#E71D73"
    />
    <path
      d="M90.5978 21.875L99.0265 30.3037C99.5572 30.8344 99.8554 31.5542 99.8554 32.3048C99.8554 33.0553 99.5572 33.7752 99.0265 34.3059L65.7925 67.5399L53.3616 55.109L86.5956 21.875C87.1263 21.3442 87.8461 21.0461 88.5967 21.0461C89.3472 21.0461 90.0671 21.3442 90.5978 21.875Z"
      fill="white"
      stroke="#1D1D1B"
      strokeWidth="5"
      strokeLinecap="round"
      strokeLinejoin="round"
    />
    <path
      d="M76.4493 63.3324L57.5625 44.4456L51.8349 50.1731L70.7218 69.0599L76.4493 63.3324Z"
      fill="#0D9BD8"
    />
  </svg>