<svg
    width="142"
    height="142"
    viewBox="0 0 142 142"
    fill="none"
    xmlns="http://www.w3.org/2000/svg"
  >
    <path d="M81.0299 101.01H70.3799V111.66H81.0299V101.01Z" fill="#E71D73" />
    <path
      d="M57.0002 109.15H94.4502C95.3121 109.15 96.1388 109.492 96.7483 110.102C97.3578 110.711 97.7002 111.538 97.7002 112.4V117.46H53.7002V112.4C53.7001 111.969 53.7858 111.542 53.9523 111.145C54.1187 110.747 54.3626 110.387 54.6697 110.084C54.9768 109.782 55.341 109.543 55.7411 109.383C56.1412 109.223 56.5692 109.143 57.0002 109.15Z"
      fill="#E71D73"
    />
    <path
      d="M106.14 88.38C98.0036 96.2388 87.1062 100.587 75.7948 100.489C64.4833 100.391 53.6629 95.8543 45.6642 87.8556C37.6655 79.8569 33.1285 69.0365 33.0304 57.7251C32.9324 46.4136 37.281 35.5162 45.1398 27.38"
      stroke="#0A99D7"
      strokeWidth="5"
      strokeMiterlimit="10"
    />
    <path
      d="M44.6499 24.91L108.25 88.51"
      stroke="#0A99D7"
      strokeWidth="5"
      strokeMiterlimit="10"
      strokeLinecap="round"
    />
    <path
      d="M51.8699 34.1C47.1692 38.8003 43.9679 44.7891 42.6709 51.3088C41.3739 57.8286 42.0393 64.5866 44.5831 70.7281C47.1269 76.8697 51.4348 82.119 56.9619 85.8122C62.4891 89.5055 68.9874 91.4767 75.6349 91.4767C82.2825 91.4767 88.7807 89.5055 94.3079 85.8122C99.8351 82.119 104.143 76.8697 106.687 70.7281C109.231 64.5866 109.896 57.8286 108.599 51.3088C107.302 44.7891 104.101 38.8003 99.3999 34.1C93.0891 27.8121 84.5436 24.2815 75.6349 24.2815C66.7263 24.2815 58.1807 27.8121 51.8699 34.1Z"
      fill="white"
      stroke="#1D1D1B"
      strokeWidth="5"
      strokeLinecap="round"
      strokeLinejoin="round"
    />
    <path
      d="M98 46.36C98.0149 46.3858 98.0227 46.4152 98.0227 46.445C98.0227 46.4748 98.0149 46.5042 98 46.53C98 46.53 98.09 46.71 98.12 46.74C98.15 46.77 98.54 47.61 98.93 48.59C99.3714 49.8449 99.7288 51.1277 100 52.43C99.9452 52.6841 99.8647 52.9321 99.76 53.17C99.64 53.37 99.34 53.93 99.25 53.93C99.1165 53.9308 98.9846 53.9005 98.8648 53.8414C98.7451 53.7824 98.6407 53.6963 98.56 53.59L98.21 53.3L98.03 53.16C97.7543 53.0967 97.5017 52.9582 97.3 52.76C97.1 52.56 96.61 52.04 96.68 51.91C96.721 51.5166 96.6444 51.1199 96.46 50.77V50.44V50.18C96.64 50.18 96.71 50.18 96.6 50.08C96.49 49.98 96.53 49.62 96.6 49.48C96.67 49.34 96.94 49.12 96.87 48.96C96.7538 48.6887 96.6992 48.395 96.71 48.1C96.77 47.96 96.93 47.49 96.85 47.4C96.77 47.31 96.95 46.9 97.17 46.67C97.41 46.4871 97.6988 46.3792 98 46.36Z"
      fill="#E71D73"
    />
    <path
      d="M50.8001 64.21C50.2901 61.89 49.9101 60 50.0001 60C50.053 59.9572 50.0944 59.9018 50.1206 59.839C50.1468 59.7761 50.1569 59.7077 50.1501 59.64C50.1501 59.49 50.5301 59.17 50.6201 59.24C50.7101 59.31 50.8301 59.14 50.7001 58.9C50.5701 58.66 50.1301 58.5 50.1101 58.43C50.0901 58.36 49.9601 58.14 50.1101 58.12C50.2601 58.1 50.6901 57.86 50.8901 57.91C51.0901 57.96 51.6401 58.07 51.6501 58.2C51.6601 58.33 51.9801 58.33 51.9701 58.2C51.9601 58.07 51.7501 57.71 51.6801 57.75C51.3666 57.7228 51.0744 57.5803 50.8601 57.35C50.5601 57.04 50.4901 56.24 50.6101 56.21C50.7301 56.18 51.1001 56.21 51.1601 55.97C51.2201 55.73 51.7201 55.87 51.7801 55.74C51.9442 55.5437 52.1445 55.3808 52.3701 55.26C52.4601 55.26 52.8101 55.39 52.9101 55.26C53.0101 55.13 53.3801 54.93 53.5201 54.98C53.6601 55.03 54.0001 55.21 53.9901 55.3C53.9801 55.39 54.2201 55.57 54.3601 55.53C54.5001 55.49 54.9201 55.34 54.9901 55.4C55.0601 55.46 55.2701 55.4 55.3001 55.47C55.3301 55.54 55.5901 55.86 55.5601 55.94C55.5301 56.02 55.5601 56.25 55.4501 56.25C55.3401 56.25 55.0401 56.47 55.1501 56.5C55.3641 56.6149 55.5409 56.7883 55.6601 57C55.7201 57.16 56.0001 57.56 55.6601 57.6C55.1722 57.6937 54.7027 57.8659 54.2701 58.11C54.1401 58.26 53.9401 57.84 54.1601 57.26L53.7101 56.68L53.4401 56.35L52.6801 56.51C52.5201 56.51 52.3901 56.94 52.2601 56.98C52.1301 57.02 51.8901 57.28 51.9801 57.25C52.1752 57.2538 52.3614 57.3326 52.5001 57.47C52.6001 57.61 52.9001 58.14 52.8101 58.33C52.6616 58.6097 52.5443 58.9048 52.4601 59.21C52.5818 59.3632 52.6456 59.5544 52.6401 59.75C52.6509 60.1089 52.6877 60.4664 52.7501 60.82C52.7537 61.0791 52.7838 61.3371 52.8401 61.59C52.9101 61.65 52.9001 61.77 53.0201 61.73C53.1401 61.69 53.6501 62.06 53.8601 62.01C54.0701 61.96 54.6501 61.87 54.6601 61.78C54.6701 61.69 54.9301 61.7 54.9001 61.61C54.8701 61.52 55.2801 61.61 55.4801 61.72C55.6801 61.83 56.0601 61.89 55.9001 61.67C55.7401 61.45 55.6301 60.97 55.6001 61.04C55.5701 61.11 55.3401 60.97 55.4201 60.9C55.4544 60.7673 55.4568 60.6284 55.4273 60.4946C55.3978 60.3608 55.337 60.2359 55.2501 60.13C55.0401 59.83 54.0901 58.92 54.1101 58.85C54.1301 58.78 54.4001 58.64 54.5101 58.67C54.6201 58.7 54.8101 58.42 54.9801 58.46C55.1501 58.5 55.5401 58.16 55.6601 58.29C55.7801 58.42 56.2101 58.69 56.3001 58.62C56.3901 58.55 56.5801 58.34 56.5101 58.26C56.4401 58.18 56.5101 58.06 56.7401 58.14C56.9701 58.22 57.5701 58.26 57.6201 58.33C57.7307 58.4493 57.879 58.527 58.0401 58.55C58.2101 58.55 58.6801 58.82 58.7001 58.73C58.7201 58.64 59.0901 58.73 59.2201 58.82C59.5187 59.1066 59.8324 59.377 60.1601 59.63C60.3001 59.7 60.7401 59.63 60.8201 59.74C60.9001 59.85 61.0401 60.09 60.9001 60.15C60.7601 60.21 60.6901 60.45 60.6301 60.42C60.5701 60.39 60.3701 60.34 60.3301 60.42C60.2901 60.5 59.9501 60.56 59.8901 60.28C59.8301 60 59.5201 59.48 59.4901 59.75C59.4601 60.02 58.9801 60.33 59.0501 60.36C59.1201 60.39 59.2801 60.7 59.2101 60.81C59.1401 60.92 59.3701 61.24 59.5101 61.23C59.6501 61.22 60.0001 61.34 59.9701 61.54C59.9401 61.74 59.8001 62.2 59.8201 62.13C59.8401 62.06 59.5301 62.04 59.4101 62.27C59.2901 62.5 59.2801 63.13 59.4101 63.15C59.4978 63.2161 59.5681 63.3025 59.6151 63.4018C59.6622 63.5011 59.6844 63.6103 59.6801 63.72C59.5769 64.0124 59.5228 64.3199 59.5201 64.63C59.5201 64.81 60.1001 65.26 60.0801 65.32C60.0601 65.38 59.9501 65.61 60.0201 65.65C60.1624 65.9164 60.2083 66.2237 60.1501 66.52C60.1598 66.9419 60.2995 67.3505 60.5501 67.69C60.7188 67.763 60.8717 67.8683 61.0001 68C61.0701 68.12 61.4101 68.55 61.2301 68.61C61.0501 68.67 60.3701 68.34 60.2301 68.41C60.0009 68.5297 59.7972 68.6927 59.6301 68.89C59.636 68.948 59.6196 69.0061 59.5844 69.0525C59.5491 69.0989 59.4975 69.1302 59.4401 69.14C59.1589 69.3115 58.9306 69.5571 58.7801 69.85C58.8118 70.4271 58.9946 70.9857 59.3101 71.47C59.7201 72.05 60.7401 71.56 60.6701 71.41C60.6001 71.26 60.5701 70.82 60.6701 70.75C60.7701 70.68 61.2101 70.44 61.3401 70.64C61.4701 70.84 61.9801 71.24 62.1501 71.08C62.3201 70.92 62.9801 71.14 63.1501 71.39C63.3201 71.64 63.9701 71.94 63.9901 71.82C64.0101 71.7 64.1801 71.32 64.2901 71.29C64.4001 71.26 64.7001 71.29 64.7101 71.1C64.7201 70.91 64.5701 70.27 64.6101 70.18C64.6501 70.09 64.7101 69.86 64.8201 69.87C64.9301 69.88 65.1601 69.75 65.1001 69.66C65.0401 69.57 65.3901 69.36 65.5601 69.35C65.7301 69.34 66.2201 69.46 66.2201 69.35C66.2201 69.24 66.4501 69.09 66.6801 69.03C67.0608 68.9082 67.4614 68.8606 67.8601 68.89C68.3263 68.9505 68.7993 68.9336 69.2601 68.84C69.6601 68.75 70.2601 69.17 70.3201 69.15C70.5378 69.0554 70.7483 68.9451 70.9501 68.82C71.1101 68.74 71.6101 68.71 71.6901 68.63C71.8696 68.4702 72.0677 68.3325 72.2801 68.22C72.4601 68.15 72.9301 68.14 72.9201 68.04C72.9101 67.94 73.3801 67.97 73.6601 68.11L73.9201 68.38L74.0801 68.54C74.1743 68.6961 74.2778 68.8463 74.3901 68.99C74.4699 69.2194 74.5203 69.4579 74.5401 69.7C74.5401 69.83 74.7701 70.23 74.7701 70.28C74.7701 70.33 74.7701 70.52 74.7701 70.6C74.9203 70.8766 75.0873 71.1437 75.2701 71.4C75.5612 71.7653 75.8064 72.1649 76.0001 72.59C75.8882 72.8509 75.8173 73.1275 75.7901 73.41C75.8332 73.6339 75.9108 73.8498 76.0201 74.05C76.1792 74.2408 76.2799 74.4734 76.3101 74.72C76.3101 74.91 76.6801 75.53 76.6801 75.64C76.6801 75.75 76.7801 76.06 76.7401 76.09C76.7041 76.1933 76.6536 76.291 76.5901 76.38C76.5101 76.47 76.3901 76.75 76.5901 76.81C76.8486 77.0143 77.0373 77.2938 77.1301 77.61C77.1301 77.79 76.8801 78.39 77.0301 78.61C77.1801 78.83 77.0301 79.37 77.2401 79.54C77.4501 79.71 77.8501 80.21 77.9501 80.2C78.0501 80.19 78.4101 80.54 78.4601 80.64C78.5101 80.74 78.4601 81.1 78.4601 81.25C78.4601 81.4 78.9301 81.77 79.0201 81.74C79.1101 81.71 79.4801 81.98 79.6001 81.99C79.7201 82 79.9501 81.99 79.8601 82.15C79.7701 82.31 79.4301 82.7 79.3301 82.71C79.2031 82.7379 79.0792 82.7781 78.9601 82.83H78.8201C78.7601 82.83 78.4301 82.58 78.2401 82.48C77.8476 82.3515 77.4663 82.1909 77.1001 82C76.9001 81.84 76.1001 81.21 75.9801 81.12C75.8601 81.03 75.6501 80.7 75.5801 80.74C75.5101 80.78 75.3501 80.39 75.4101 80.25C75.4701 80.11 75.0901 79.79 75.0701 79.88C75.0501 79.97 74.4601 79.67 74.0701 79.33C73.6801 78.99 73.3201 78.02 73.0701 77.84C72.7855 77.5622 72.5246 77.2612 72.2901 76.94C72.2201 76.94 71.9901 76.81 71.9301 76.72C71.7802 76.5026 71.5901 76.3159 71.3701 76.17C70.9637 75.9614 70.5292 75.8132 70.0801 75.73C69.7728 75.7427 69.4655 75.7055 69.1701 75.62C69.0683 75.5475 68.9531 75.496 68.8312 75.4685C68.7093 75.441 68.5831 75.4381 68.4601 75.46C68.2001 75.52 67.5201 74.9 67.5801 74.83C67.6401 74.76 67.5801 74.57 67.4001 74.61C67.1363 74.6379 66.87 74.5929 66.6301 74.48C66.3237 74.1614 66.0795 73.7883 65.9101 73.38C65.7815 73.1134 65.6344 72.8561 65.4701 72.61C65.4701 72.53 65.2001 72.29 65.0601 72.23C64.9201 72.17 64.5201 71.95 64.5401 72.04C64.5364 72.0804 64.5245 72.1197 64.5053 72.1554C64.486 72.1911 64.4596 72.2225 64.4279 72.2478C64.3961 72.273 64.3595 72.2916 64.3203 72.3022C64.2812 72.3129 64.2403 72.3156 64.2001 72.31C63.9701 72.31 63.3601 72.54 63.3301 72.5C63.223 72.4297 63.0981 72.3915 62.9701 72.39C62.8601 72.39 62.4501 72.39 62.3401 72.39C62.2301 72.39 61.8701 72.7 61.7401 72.66C61.3985 72.6267 61.0541 72.6818 60.7401 72.82C60.246 73.112 59.6987 73.3024 59.1301 73.38C58.9001 73.3 58.1301 72.67 57.9101 72.64C57.6346 72.6265 57.3621 72.576 57.1001 72.49C57.0301 72.42 56.9901 72.58 57.1001 72.63C57.2101 72.68 57.5501 73.05 57.4701 73.06C57.3901 73.07 57.0101 73.24 56.8001 73.12C56.5901 73 56.0001 73 56.0001 72.89C55.8533 72.725 55.6851 72.5804 55.5001 72.46C55.1785 72.3069 54.8438 72.1831 54.5001 72.09C54.4001 72.1 51.3101 66.54 50.8001 64.21Z"
      fill="#E71D73"
    />
    <path
      d="M49.9998 55.4C49.8998 55.46 49.9398 54.68 50.0798 53.66C50.3065 52.4213 50.6138 51.1987 50.9998 50C50.9998 49.95 51.1498 50.19 51.0798 50.38C51.0098 50.57 50.8998 51.13 50.9698 51.15C51.0234 51.226 51.0601 51.3127 51.0774 51.4041C51.0946 51.4956 51.092 51.5896 51.0698 51.68C51.0098 51.81 51.0698 52.31 50.9798 52.5C50.8402 52.8219 50.733 53.1569 50.6598 53.5C50.6598 53.7 51.0198 54.3 50.9398 54.37C50.8598 54.44 50.7198 54.58 50.7798 54.49C50.8398 54.4 51.0798 54.62 51.1198 54.71C51.1598 54.8 50.8798 55.2 50.7098 55.44C50.4882 55.7775 50.23 56.0894 49.9398 56.37C49.9398 56.37 49.7898 56.29 49.7998 56.21C49.8321 56.051 49.9254 55.911 50.0598 55.82C50.1898 55.71 50.1198 55.34 49.9998 55.4Z"
      fill="#E71D73"
    />
    <path
      d="M80.2101 32.73C81.1042 32.8742 81.9751 33.1365 82.8001 33.51C82.8001 33.61 83.0101 33.86 83.1301 33.82C83.2501 33.78 83.5601 33.57 83.7301 33.63C84.0805 33.7806 84.4153 33.9648 84.7301 34.18C85.093 34.5295 85.3879 34.9431 85.6001 35.4C85.7199 35.7832 85.7938 36.1793 85.8201 36.58C85.8859 37.0092 86.1152 37.3962 86.4601 37.66C86.8801 37.97 87.0301 38.94 86.8801 38.98C86.7301 39.02 86.1701 38.64 86.0101 38.64C85.8501 38.64 85.5301 38.56 85.6301 38.64C85.7301 38.72 85.7601 39.1 85.7901 39.16C85.8201 39.22 85.7201 39.43 85.7901 39.5C85.9131 39.641 86.0626 39.7565 86.2301 39.84C86.7186 39.9403 87.1691 40.1759 87.5301 40.52C87.7259 40.7887 87.8935 41.0769 88.0301 41.38C88.0185 41.6155 88.0421 41.8514 88.1001 42.08C88.2001 42.37 88.2901 43.27 88.1001 43.44C87.9101 43.61 88.1001 44.04 88.1001 44C88.1001 43.96 88.3801 44 88.4701 44.14C88.6565 44.5698 88.8986 44.9732 89.1901 45.34C89.3089 45.541 89.3781 45.7673 89.392 46.0003C89.4059 46.2334 89.3641 46.4663 89.2701 46.68C89.0977 46.6028 88.9082 46.5718 88.7201 46.59C88.5401 46.59 88.1401 46.66 88.2201 46.8C88.3973 47.0333 88.6268 47.2217 88.8901 47.35C89.0501 47.35 89.6801 47.42 89.8901 47.48C90.1001 47.54 90.5001 48.07 90.1801 48.09C89.7145 48.1093 89.2482 48.0757 88.7901 47.99C88.5905 47.8652 88.4144 47.7061 88.2701 47.52C88.1647 47.3492 88.0209 47.2054 87.8501 47.1C87.7201 47.05 87.3101 47.02 87.2301 46.96C87.1501 46.9 86.9001 46.72 86.7601 46.87C86.6689 46.9278 86.5631 46.9585 86.4551 46.9585C86.3471 46.9585 86.2414 46.9278 86.1501 46.87C85.9935 46.6969 85.7982 46.5632 85.5801 46.48C85.3901 46.42 84.8601 46.48 84.7901 46.59C84.7134 46.8622 84.6566 47.1396 84.6201 47.42C84.6201 47.57 84.9601 48.07 85.0001 48.16C85.0401 48.25 84.8001 48.48 84.8501 48.54C84.9001 48.6 85.0101 48.76 84.9601 48.8C84.939 49.0468 85.0103 49.2927 85.1601 49.49C85.3601 49.78 85.8201 50.62 85.7301 50.73C85.6598 50.7744 85.5783 50.798 85.4951 50.798C85.4119 50.798 85.3305 50.7744 85.2601 50.73C85.0956 50.5808 84.9104 50.4561 84.7101 50.36C84.3676 50.2713 84.0332 50.1542 83.7101 50.01C83.4701 49.87 82.7801 49.66 82.7101 49.61C82.6401 49.56 82.2601 49.32 82.1601 49.38C82.0123 49.438 81.848 49.438 81.7001 49.38C81.4829 49.2293 81.2245 49.149 80.9601 49.15L80.6201 49.64L80.5201 49.78C80.491 49.7685 80.4596 49.7643 80.4285 49.7679C80.3974 49.7714 80.3677 49.7826 80.3419 49.8004C80.3162 49.8182 80.2953 49.8421 80.281 49.8699C80.2667 49.8978 80.2596 49.9287 80.2601 49.96C80.2601 50.11 79.8401 50.47 79.7501 50.43C79.4579 50.321 79.1567 50.2373 78.8501 50.18C78.4481 50.1462 78.0433 50.1938 77.6601 50.32C77.6487 50.3837 77.6536 50.4493 77.6746 50.5106C77.6956 50.5718 77.732 50.6267 77.7801 50.67C77.8901 50.67 78.3001 50.6 78.4801 50.67C78.6601 50.74 79.1201 50.92 79.1401 50.8C79.2182 50.7003 79.3186 50.6204 79.4333 50.5665C79.5479 50.5127 79.6735 50.4865 79.8001 50.49C79.9901 50.49 80.5201 50.84 80.5301 50.97C80.5401 51.1 80.8801 51.62 80.8701 51.8C80.8601 51.98 80.6901 52.49 80.7401 52.57C80.7589 52.8594 80.7146 53.1494 80.6101 53.42C80.5101 53.75 79.9401 54.5 79.6701 54.42C79.4001 54.34 78.5101 54 78.2101 53.92C77.7325 53.8331 77.2639 53.7025 76.8101 53.53C76.6401 53.42 76.3301 53.41 76.4401 53.53C76.5501 53.65 76.9201 53.95 77.0601 53.95C77.3741 53.9493 77.688 53.966 78.0001 54C78.2101 54.05 79.0001 54.58 79.2601 54.56C79.5201 54.54 80.3301 54.88 80.4201 54.78C80.5846 54.6159 80.705 54.413 80.7701 54.19C80.7701 54.06 81.1901 53.83 81.3601 53.94C81.6916 54.3134 81.9464 54.7483 82.1101 55.22C82.2726 55.8125 82.4027 56.4134 82.5001 57.02C82.5033 57.3361 82.5678 57.6485 82.6901 57.94C83.0042 58.4724 83.3801 58.9659 83.8101 59.41C84.378 60.0002 84.8113 60.7064 85.0801 61.48C85.3016 62.0734 85.5553 62.6543 85.8401 63.22C85.7798 63.4052 85.7798 63.6048 85.8401 63.79C86.0431 64.0678 86.1955 64.3792 86.2901 64.71C86.3854 65.2347 86.4356 65.7667 86.4401 66.3C86.3601 66.66 85.4401 67.41 85.1101 67.2C84.7801 66.99 83.7201 66.62 83.6101 66.51C83.3028 66.2415 82.9676 66.0069 82.6101 65.81C82.0998 65.5978 81.6165 65.3259 81.1701 65C80.8596 64.5528 80.5259 64.1222 80.1701 63.71C79.9401 63.53 79.1701 63.17 78.8801 63.01C78.4152 62.7604 77.9849 62.4511 77.6001 62.09C77.4501 61.84 76.6901 61.23 76.6001 61.32C76.5101 61.41 76.3601 61.69 76.2201 61.72C76.0801 61.75 75.6001 61.99 75.4501 61.85L75.3201 61.95L75.0601 62.17C75.1345 62.2902 75.1739 62.4287 75.1739 62.57C75.1739 62.7113 75.1345 62.8498 75.0601 62.97C74.7874 63.2561 74.4699 63.4959 74.1201 63.68C73.6472 63.7648 73.163 63.7648 72.6901 63.68C72.1235 63.4499 71.589 63.1474 71.1001 62.78C70.6093 62.2871 70.1673 61.7479 69.7801 61.17C69.562 60.6423 69.4173 60.0871 69.3501 59.52L69.2601 59.24L69.1001 58.81C68.8081 58.4954 68.6136 58.1029 68.5401 57.68C68.5401 57.53 68.5401 57.06 68.6201 56.99C68.7001 56.92 69.0801 56.74 69.1801 56.48C69.2801 56.22 69.9401 55.36 70.0301 55.16C70.1201 54.96 70.6401 54.46 70.7301 54.52C70.8201 54.58 70.8601 54.77 70.9601 54.77C71.2824 54.8755 71.6252 54.9029 71.9601 54.85C72.2901 54.73 73.1001 54.58 73.0401 54.44C72.9801 54.3 73.3101 53.73 73.6501 53.44C73.9901 53.15 74.8001 52.53 74.6501 52.36C74.5001 52.19 74.4501 51.67 74.3701 51.6C74.2901 51.53 74.1701 51.42 74.2601 51.6C74.3501 51.78 74.1001 51.95 74.0401 51.87C73.9801 51.79 73.5001 52.12 73.2801 52.53H72.8901H72.7101C72.5552 52.4685 72.4103 52.3842 72.2801 52.28C72.2001 52.2 71.8901 51.83 71.8601 51.86C71.8301 51.89 71.8601 52.11 72.0601 52.26C72.2601 52.41 72.6001 52.81 72.7101 52.72C72.8201 52.63 73.0301 52.93 72.9301 53.02C72.8301 53.11 72.5501 53.02 72.5701 52.97C72.5901 52.92 72.4501 52.97 72.3701 53.06C72.2987 53.1065 72.2153 53.1312 72.1301 53.1312C72.0449 53.1312 71.9615 53.1065 71.8901 53.06C71.7236 52.9094 71.5427 52.7754 71.3501 52.66H71.2101C71.1201 52.66 70.9001 52.52 70.8101 52.5L70.3101 52.4C69.7601 52.4 69.5801 52.46 69.9001 52.47C70.2147 52.4921 70.5228 52.57 70.8101 52.7C70.7001 52.7 70.8101 52.99 70.8101 52.96C70.8101 52.93 71.0001 53.22 70.9501 53.35C70.9001 53.48 71.1301 53.94 71.0201 53.99C70.9101 54.04 70.6401 53.78 70.7201 53.7C70.8001 53.62 70.5801 53.36 70.4001 53.32C70.2201 53.28 69.7001 53.47 69.6101 53.42C69.5201 53.37 69.5201 53.54 69.7701 53.69C70.0201 53.84 69.6801 54.23 69.4201 54.07C69.1601 53.91 68.8201 53.45 68.7901 53.62C68.7601 53.79 68.3601 54.16 68.4101 54.36C68.431 54.7524 68.4947 55.1414 68.6001 55.52C68.7501 55.76 68.9301 56.4 68.8201 56.44C68.7101 56.48 68.4301 56.87 68.3001 56.88C68.1701 56.89 67.7401 57.18 67.6101 57.09C67.3456 56.8943 67.095 56.6805 66.8601 56.45C66.6726 56.1527 66.6047 55.7954 66.6701 55.45C66.8001 55.23 67.3401 54.87 67.3201 54.79C67.3001 54.71 67.1401 54.49 66.9901 54.49C66.8401 54.49 66.3801 54.24 66.2901 54.34C66.2001 54.44 65.9401 54.42 65.9101 54.34C65.8801 54.26 65.9101 53.84 65.9101 53.69C65.9101 53.54 66.1601 53.16 66.1601 53.13C66.1601 53.1 65.9301 53.13 65.7501 53.33C65.5701 53.53 65.2001 53.95 65.2101 53.86C65.2201 53.77 65.1601 53.48 65.0301 53.44C64.9001 53.4 64.5901 52.92 64.6701 52.82C64.7501 52.72 64.5001 52.44 64.4401 52.48C64.3379 52.4865 64.2354 52.4701 64.1403 52.432C64.0452 52.394 63.9597 52.3352 63.8901 52.26C63.7701 52.09 63.2701 51.51 63.3001 51.39C63.3301 51.27 63.6101 51.05 63.6501 51.14C63.6901 51.23 63.7501 51.44 63.8401 51.44C64.0551 51.4348 64.2699 51.455 64.4801 51.5C64.6601 51.55 65.2301 52.07 65.3201 52.07C65.4046 52.0804 65.4853 52.1113 65.555 52.1601C65.6248 52.209 65.6815 52.2741 65.7201 52.35C65.7801 52.51 65.9901 52.87 65.8801 52.72C65.7701 52.57 66.0901 52.14 66.0301 52.04C65.9408 51.8571 65.9094 51.6512 65.9401 51.45C65.9901 51.32 66.1901 50.94 66.1301 50.87C66.0701 50.8 65.8701 50.82 65.8301 50.71C65.7901 50.6 65.5601 50.26 65.4401 50.37C65.3201 50.48 64.8301 50.31 64.6701 50.14C64.3518 49.8948 64.0541 49.6239 63.7801 49.33C63.6201 49.09 63.7801 48.43 63.7801 48.33C63.7801 48.23 63.6301 48.1 63.6701 48.05C63.7181 47.9986 63.7516 47.9355 63.7674 47.8671C63.7832 47.7986 63.7807 47.7272 63.7601 47.66C63.6285 47.259 63.5314 46.8475 63.4701 46.43C63.4701 46.17 63.4701 45.43 63.4701 45.35C63.4701 45.27 63.6301 45.16 63.6401 45C63.6652 44.7243 63.7433 44.4561 63.8701 44.21C64.0399 44.0501 64.2457 43.9334 64.4701 43.87C64.7114 43.9148 64.9588 43.9148 65.2001 43.87C65.5664 43.7657 65.9269 43.6422 66.2801 43.5C66.6001 43.33 67.1501 43.64 67.1701 43.45C67.1901 43.26 66.8601 42.7 66.9401 42.67C67.0201 42.64 67.2901 42.51 67.3701 42.58C67.396 42.6045 67.4282 42.6213 67.4631 42.6284C67.4981 42.6355 67.5343 42.6326 67.5677 42.6201C67.6011 42.6076 67.6302 42.586 67.6519 42.5576C67.6735 42.5293 67.6868 42.4955 67.6901 42.46C67.7856 42.0465 67.9477 41.6514 68.1701 41.29C68.3301 41.09 68.6901 40.81 68.5801 40.88C68.4701 40.95 68.2401 40.52 68.4001 40.46C68.7074 40.2007 68.9245 39.8505 69.0201 39.46C69.0201 39.21 68.9601 38.46 69.0801 38.46C69.2001 38.46 69.4801 38.35 69.4401 38.24C69.4001 38.13 69.7301 37.95 69.8201 38.05C69.9101 38.15 70.1101 38.15 70.0801 38.05C70.0501 37.95 69.9701 37.65 70.1301 37.6C70.2901 37.55 70.6101 37.4 70.4901 37.44C70.3701 37.48 70.0301 37.17 70.0701 37.08C70.1283 36.9166 70.1521 36.743 70.1401 36.57C70.1005 36.3922 70.1005 36.2078 70.1401 36.03C70.226 35.7828 70.3365 35.545 70.4701 35.32C70.6001 35.14 70.7401 34.66 70.8201 34.67C70.9001 34.68 71.0701 34.51 71.0201 34.39C70.9701 34.27 71.2401 33.88 71.1401 33.75C71.0401 33.62 71.1401 33.31 71.2301 33.31C71.4894 33.2517 71.7322 33.1355 71.9401 32.97C72.1001 32.83 72.4301 32.44 72.5901 32.44C72.7501 32.44 73.1801 32.65 73.2001 32.76C73.3017 32.8532 73.431 32.9105 73.5683 32.9232C73.7056 32.9358 73.8432 32.9031 73.9601 32.83L74.1401 32.71C74.2401 32.65 74.2901 32.52 74.3801 32.47L74.5701 32.38C76.457 32.3174 78.3455 32.4346 80.2101 32.73Z"
      fill="#E71D73"
    />
    <path
      d="M87 35.07C87.1148 35.1184 87.2225 35.1823 87.32 35.26C87.32 35.26 87.32 35.31 87.21 35.26C87.1 35.21 86.98 35.41 87.02 35.56C87.06 35.71 86.65 35.67 86.56 35.56C86.47 35.45 86.08 34.96 86.15 34.92C86.4406 34.9106 86.7301 34.9617 87 35.07Z"
      fill="#E71D73"
    />
    <path
      d="M91.5901 43.6C91.5901 43.66 91.4902 43.6 91.4402 43.46C91.3902 43.32 91.5802 43.05 91.4402 42.94C91.3002 42.83 91.3102 42.55 91.4402 42.52C91.5702 42.49 91.9501 42.63 92.0701 42.52C92.1901 42.41 92.4801 42.89 92.3801 43.04C92.2801 43.19 92.2501 43.57 92.1701 43.54C91.9748 43.5175 91.7768 43.538 91.5901 43.6Z"
      fill="#E71D73"
    />
    <path
      d="M94.2801 46.33C94.4501 46.33 94.5201 46.44 94.4301 46.48C94.3401 46.52 94.0401 46.63 94.0601 46.73C94.0801 46.83 94.0601 46.92 93.6701 46.73C93.2801 46.54 93.1701 45.66 93.3301 45.55C93.4901 45.44 93.9201 45.74 93.8801 45.83C93.8401 45.92 94.1101 46.29 94.2801 46.33Z"
      fill="#E71D73"
    />
    <path
      d="M92.82 46.16C92.94 46.3 93.13 46.56 93.25 46.74C93.37 46.92 93.39 47.35 93.43 47.34V47.42C93.43 47.5 93.43 47.7 93.21 47.7C92.99 47.7 92.45 48.16 92.27 48.11C92.11 47.9993 91.9816 47.8489 91.8975 47.6736C91.8133 47.4983 91.7763 47.304 91.79 47.11C91.89 46.71 91.42 45.55 91.56 45.48C91.7 45.41 92.17 45.43 92.22 45.48C92.27 45.53 92.71 46 92.82 46.16Z"
      fill="#E71D73"
    />
    <path
      d="M94.1699 48.48C94.2699 48.48 94.09 48.61 93.76 48.79C93.43 48.97 92.5199 49.6 92.4599 49.51C92.4412 49.3941 92.4614 49.2752 92.5175 49.172C92.5736 49.0688 92.6624 48.9872 92.7699 48.94C93.0499 48.82 94.0599 48.5 94.1699 48.48Z"
      fill="#E71D73"
    />
    <path
      d="M88.8901 41.92C88.8901 42.08 88.8901 42.16 88.7401 42.09C88.5901 42.02 88.3202 41.82 88.2902 41.65C88.2602 41.48 88.8601 41.77 88.8901 41.92Z"
      fill="#E71D73"
    />
    <path
      d="M89.8001 42.34C90.0001 42.21 90.2201 42.24 90.2901 42.4C90.3601 42.56 90.4401 42.99 90.2901 42.99C90.1401 42.99 89.5901 42.47 89.8001 42.34Z"
      fill="#E71D73"
    />
    <path
      d="M94.9998 44C95.2798 44.31 94.9098 44.82 94.5498 44.87C94.1898 44.6 94.6498 44.1 94.9998 44Z"
      fill="#E71D73"
    />
    <path
      d="M88.7001 37.65C88.6648 37.8208 88.5855 37.9793 88.4701 38.11C88.4701 38.11 88.2901 38.33 88.2601 38.48C88.2301 38.63 88.3401 39.07 88.2601 39.09C88.1801 39.11 87.8601 38.82 87.9301 38.75C88.0001 38.68 88.1101 38.6 88.0301 38.75C87.9501 38.9 87.7501 38.56 87.7701 38.37C87.7901 38.18 87.9101 37.55 87.9101 37.37C87.9101 37.19 88.0001 36.69 87.9701 36.65C87.8887 36.5087 87.795 36.3749 87.6901 36.25C87.5501 36.11 87.0801 35.7 87.1201 35.65C87.2428 35.6448 87.3653 35.6643 87.4804 35.7072C87.5954 35.7502 87.7007 35.8157 87.7901 35.9C88.2306 36.401 88.5429 37.0016 88.7001 37.65Z"
      fill="#E71D73"
    />
    <path
      d="M85.1299 34.17L86.1299 34.6C85.7999 34.68 85.4699 34.47 85.1299 34.17Z"
      fill="#E71D73"
    />
    <path
      d="M89.4202 48.57L88.9502 48.63C89.0902 48.63 88.9502 48.32 89.0402 48.35C89.1302 48.38 89.5002 48.28 89.7602 48.35L90.0102 48.43L90.2502 48.49C90.6521 48.4623 91.0557 48.5098 91.4402 48.63C91.6902 48.74 91.8702 49.24 91.6902 49.26C90.9479 48.9851 90.1899 48.7547 89.4202 48.57Z"
      fill="#E71D73"
    />
    <path
      d="M85.9199 50.23C85.8399 50.03 85.9199 49.87 86.0399 49.88C86.273 49.9335 86.483 50.0595 86.6399 50.24C86.6799 50.34 85.9999 50.43 85.9199 50.23Z"
      fill="#E71D73"
    />
    <path
      d="M86.78 59.65C86.8877 59.782 86.9661 59.9354 87.01 60.1C87.0355 60.2096 87.0909 60.3099 87.17 60.39C87.3186 60.5535 87.4556 60.7273 87.58 60.91C87.7243 61.1974 87.8125 61.5096 87.84 61.83C87.78 61.93 87.4 62.08 87.24 61.95C86.953 61.7665 86.682 61.5591 86.43 61.33C86.3477 61.1476 86.2285 60.9841 86.08 60.85C85.8796 60.6511 85.7289 60.4079 85.64 60.14C85.6472 59.8052 85.6238 59.4705 85.57 59.14C85.47 58.97 85.41 58.62 85.57 58.75C85.9889 59.0284 86.3928 59.3289 86.78 59.65Z"
      fill="#E71D73"
    />
    <path
      d="M79.8699 80C79.6299 79.78 79.8699 79.44 80.1099 79.76L79.8699 80Z"
      fill="#E71D73"
    />
    <path
      d="M59.1102 54.35C59.1727 54.5494 59.2195 54.7533 59.2502 54.96C59.2502 55.07 59.2502 55.32 59.1502 55.28C59.0502 55.24 58.7002 55.44 58.6202 55.52C58.4495 55.5418 58.276 55.5193 58.1166 55.4544C57.9572 55.3896 57.8172 55.2848 57.7102 55.15C57.3502 54.8 56.3102 54.48 56.3202 54.33C56.3302 54.18 56.0802 54.02 56.1002 53.87C56.1202 53.72 55.9902 53.43 55.8102 53.51C55.6302 53.59 55.2102 53.33 55.3302 53.23C55.4502 53.13 55.2602 52.92 55.2702 53.03C55.2802 53.14 54.8402 53.24 54.7602 53.14C54.612 52.9621 54.4323 52.813 54.2302 52.7C54.1002 52.7 53.5802 52.36 53.4102 52.49C53.2402 52.62 52.8002 52.84 52.8302 52.93C52.8602 53.02 52.5002 53.27 52.3402 53.35C52.1802 53.43 51.8302 53.14 51.9702 52.99C52.1102 52.84 52.3502 52.46 52.2402 52.5C52.1302 52.54 51.8302 52.8 51.7002 52.83C51.5702 52.86 51.5802 53.05 51.4902 53.02C51.4002 52.99 51.2002 53.1 51.1902 52.94C51.1802 52.78 51.4802 52.45 51.5702 52.26C51.6602 52.07 51.6502 51.65 51.5702 51.72C51.4902 51.79 51.3002 51.22 51.4002 50.83C51.6584 50.2068 51.9944 49.6188 52.4002 49.08C52.5802 48.9 53.1402 48.34 53.0302 48.26C52.9202 48.18 52.7502 47.83 52.8402 47.68C53.0924 47.3156 53.3841 46.9802 53.7102 46.68C53.9412 46.3791 54.1549 46.0652 54.3502 45.74C54.4202 45.69 54.7102 45.59 54.7802 45.48C55.0049 45.26 55.2419 45.053 55.4902 44.86C55.6502 44.69 56.0202 44.8 55.9102 44.99C55.8002 45.18 56.0602 45.6 56.1202 45.44C56.2637 45.223 56.4644 45.05 56.7002 44.94C56.8916 44.8887 57.0648 44.7848 57.2002 44.64C57.2802 44.53 57.5002 44.84 57.4302 44.95C57.3334 45.1435 57.2757 45.3542 57.2602 45.57C57.2602 45.68 57.1302 45.97 57.2602 46C57.4117 46.1271 57.5258 46.293 57.5902 46.48C57.5902 46.58 57.5002 46.73 57.6502 46.63C57.8002 46.53 58.1802 46.84 58.0802 46.95C57.9802 47.06 58.0802 47.55 58.4702 47.78C58.8602 48.01 58.7602 48.73 58.8502 48.73C58.9402 48.73 59.1702 49.04 59.0902 49.05C58.9702 49.11 59.0102 49.06 59.0902 49.05C59.2102 48.99 59.2002 49.44 59.0302 49.51C58.8602 49.58 58.4002 49.83 58.4102 49.9C58.4125 49.9296 58.421 49.9583 58.4352 49.9844C58.4493 50.0105 58.4689 50.0332 58.4925 50.0512C58.5161 50.0691 58.5433 50.0819 58.5722 50.0885C58.6011 50.0952 58.6311 50.0957 58.6602 50.09C58.8602 50.09 58.9802 49.89 58.9702 50.09C58.9602 50.29 59.1702 50.87 59.1402 51.09C59.1102 51.31 58.8802 51.93 58.8702 52.04C58.8651 52.2346 58.845 52.4285 58.8102 52.62C58.8102 52.73 58.4302 52.99 58.4802 53.09C58.5302 53.19 59.0002 54.12 59.1102 54.35Z"
      fill="#E71D73"
    />
    <path
      d="M60.3202 42.81C60.4355 42.743 60.5668 42.7085 60.7002 42.71C60.8202 42.71 60.9702 42.49 61.2002 42.42C61.4302 42.35 61.9502 42.97 61.7702 43.07C61.5902 43.17 61.1702 43.35 61.2802 43.53C61.3902 43.71 61.6102 44.23 61.5202 44.33C61.4302 44.43 61.0902 44.33 60.9902 44.39C60.8902 44.45 60.6002 44.39 60.5902 44.23C60.5802 44.07 60.2702 43.72 60.2602 43.88C60.2502 44.04 59.9702 44.38 59.9202 44.34C59.8702 44.3 59.5702 44.1 59.4502 44.13C59.3302 44.16 59.0702 43.81 59.1402 43.55C59.2102 43.29 59.6402 43.25 59.5202 43.2C59.4002 43.15 59.5202 42.75 59.6802 42.67C59.8402 42.59 60.2402 42.87 60.3202 42.81Z"
      fill="#E71D73"
    />
    <path
      d="M59.8899 42.24C59.8299 42.18 60.0099 41.91 60.2999 41.64C60.5899 41.37 61.4799 40.8 61.4799 40.93C61.4832 41.0804 61.4557 41.2299 61.3989 41.3692C61.3421 41.5085 61.2574 41.6347 61.1499 41.74C60.7631 41.9805 60.3364 42.1498 59.8899 42.24Z"
      fill="#E71D73"
    />
    <path
      d="M64.5002 53.13C64.5417 53.1788 64.5646 53.2409 64.5646 53.305C64.5646 53.3691 64.5417 53.4312 64.5002 53.48C64.4202 53.59 64.2102 53.82 64.1002 53.74C63.9902 53.66 63.7502 53.36 63.8502 53.32C63.9502 53.28 63.7602 52.9 63.8502 52.85C63.9402 52.8 64.4102 53 64.5002 53.13Z"
      fill="#E71D73"
    />
    <path
      d="M61.71 50.81C61.6635 50.8769 61.5951 50.9255 61.5166 50.9475C61.4381 50.9694 61.3544 50.9632 61.28 50.93C61.15 50.86 60.81 51.1 60.78 51C60.75 50.9 60.59 50.65 60.59 50.72C60.59 50.79 60.39 50.86 60.44 50.72C60.49 50.58 60.21 50.23 60.33 50.24C60.5452 50.1994 60.7496 50.1143 60.93 49.99C61.03 49.9 61.4 49.51 61.55 49.55C61.7 49.59 62.04 50.13 61.97 50.22C61.9 50.31 61.8 50.67 61.71 50.81Z"
      fill="#E71D73"
    />
    <path
      d="M66.3301 40C66.3422 39.7178 66.3926 39.4386 66.4801 39.17C66.5701 38.88 67.0301 38.11 67.0201 38.07C67.0101 38.03 67.0201 37.89 67.0201 37.84C67.0201 37.79 67.2901 37.84 67.3801 38.01C67.4701 38.18 67.1201 39.01 67.1301 39.23C67.1401 39.45 66.9501 40.28 67.1301 40.38C67.3101 40.48 67.9101 40.85 67.8801 40.91C67.85 40.9769 67.8059 41.0366 67.7506 41.0849C67.6954 41.1333 67.6304 41.1691 67.5601 41.19C67.3701 41.19 66.8501 41.19 66.8201 41.09C66.7901 40.99 66.3401 40.13 66.3301 40Z"
      fill="#E71D73"
    />
    <path
      d="M64.7802 38.11C64.3902 37.77 64.7802 37.11 65.2502 37.5C65.0002 37.7 65.1902 38.13 64.7802 38.11Z"
      fill="#E71D73"
    />
    <path
      d="M68.8098 34.24C68.7298 34.15 68.8098 33.87 69.0798 33.61C69.3498 33.35 69.7898 33.43 69.6598 33.61C69.5298 33.79 68.8898 34.33 68.8098 34.24Z"
      fill="#E71D73"
    />
    <path
      d="M53.6501 58.76C53.7201 58.76 53.5901 58.85 53.3601 58.89C53.1301 58.93 53.3601 59.59 53.2801 59.69C53.2001 59.79 52.8101 59.55 52.8101 59.43C52.8101 59.31 52.8101 58.98 52.9101 58.96C53.1531 58.8807 53.4001 58.8139 53.6501 58.76Z"
      fill="#E71D73"
    />
    <path
      d="M64.5901 67.82C64.6601 67.75 64.7501 67.82 64.7901 67.92C64.8301 68.02 64.5901 68.3 64.5401 68.25C64.5027 68.1054 64.5205 67.9521 64.5901 67.82Z"
      fill="#E71D73"
    />
    <path
      d="M63.0002 68.91C62.9417 68.9879 62.8638 69.0491 62.7744 69.0877C62.685 69.1263 62.587 69.1408 62.4902 69.13C62.2186 69.1732 61.9727 69.3158 61.8002 69.53C61.8002 69.66 61.4302 69.9 61.4002 69.82C61.3739 69.7135 61.3719 69.6025 61.3944 69.4952C61.4169 69.3878 61.4633 69.2869 61.5302 69.2C61.7698 68.9592 62.0426 68.7538 62.3402 68.59C62.5291 68.5708 62.7163 68.5374 62.9002 68.49C62.9702 68.49 63.3202 68.49 63.5002 68.31C63.6802 68.13 64.2702 68.4 64.1402 68.5C64.0102 68.6 64.0102 68.89 63.9002 68.9C63.7902 68.91 63.4502 69.13 63.3502 69.08C63.2502 69.03 63.0902 68.77 63.0002 68.91Z"
      fill="#E71D73"
    />
    <path
      d="M63.1501 69.49C63.2701 69.49 63.3101 69.49 63.2501 69.59C63.1901 69.69 62.9701 69.92 62.9201 69.87C62.8701 69.82 63.0001 69.5 63.1501 69.49Z"
      fill="#E71D73"
    />
    <path
      d="M61.8899 68.56C61.8657 68.5832 61.8335 68.5962 61.7999 68.5962C61.7664 68.5962 61.7341 68.5832 61.7099 68.56C61.6599 68.56 61.5999 68.34 61.7099 68.31C61.8199 68.28 61.9299 68.52 61.8899 68.56Z"
      fill="#E71D73"
    />
    <path
      d="M62.16 68.13C62 68 62 67.91 62 67.88C62.0708 67.8245 62.1607 67.7993 62.25 67.81C62.34 67.84 62.27 68.23 62.16 68.13Z"
      fill="#E71D73"
    />
    <path
      d="M62.9298 68.17C62.9298 68.23 62.8198 68.17 62.7598 68.17C62.6998 68.17 62.5998 67.9 62.6898 67.87C62.7798 67.84 63.0998 67.87 63.1498 67.87C63.1998 67.87 63.3198 67.94 63.2698 68.1C63.2198 68.26 62.9998 68.11 62.9298 68.17Z"
      fill="#E71D73"
    />
    <path
      d="M97.0799 44.59C97.2499 44.88 97.3299 45.06 97.2599 44.99C97.0244 44.8395 96.7493 44.7628 96.4699 44.77C96.1899 44.77 95.4099 44.95 95.3699 45.08C95.3299 45.21 95.1599 45.08 95.1899 45.01C95.2199 44.94 95.0999 44.71 95.1899 44.73C95.2799 44.75 95.4999 44.47 95.5199 44.39C95.5337 44.233 95.5779 44.0802 95.6499 43.94C95.7837 43.8095 95.9352 43.6984 96.0999 43.61C96.485 43.8724 96.8175 44.2048 97.0799 44.59Z"
      fill="#E71D73"
    />
  </svg>