<svg
    width="142"
    height="142"
    viewBox="0 0 142 142"
    fill="none"
    xmlns="http://www.w3.org/2000/svg"
  >
    <path
      d="M96.8802 38.58C97.8562 38.58 98.7922 38.9677 99.4824 39.6578C100.172 40.348 100.56 41.284 100.56 42.26V47.74H93.2002V42.26C93.2002 41.284 93.5879 40.348 94.278 39.6578C94.9682 38.9677 95.9042 38.58 96.8802 38.58Z"
      fill="#E71D73"
    />
    <path
      d="M37.0948 45.3817C38.3025 44.1739 39.9406 43.4954 41.6486 43.4954C43.3565 43.4954 44.9946 44.1739 46.2023 45.3817L71.1561 70.3355L62.0486 79.443L37.1019 54.4963C36.5023 53.8986 36.0265 53.1886 35.7016 52.4068C35.3768 51.6251 35.2092 50.787 35.2086 49.9404C35.2079 49.0939 35.3742 48.2555 35.6978 47.4733C36.0215 46.691 36.4962 45.9803 37.0948 45.3817Z"
      fill="#0085C4"
    />
    <path
      d="M99.15 42.1C98.615 42.6322 97.9092 42.9582 97.1571 43.0204C96.4051 43.0826 95.6552 42.877 95.04 42.44L62.79 19.44L66.91 15.32C67.5659 14.6621 68.3452 14.1401 69.2032 13.7839C70.0612 13.4277 70.981 13.2443 71.91 13.2443C72.839 13.2443 73.7589 13.4277 74.6169 13.7839C75.4749 14.1401 76.2542 14.6621 76.91 15.32L99.15 37.59C99.7454 38.1895 100.08 39.0001 100.08 39.845C100.08 40.6899 99.7454 41.5005 99.15 42.1Z"
      fill="#0085C4"
    />
    <path
      d="M76.4739 14.9096L76.4669 14.9025C73.9519 12.3875 69.8743 12.3875 67.3593 14.9025L37.0951 45.1667C34.5802 47.6816 34.5802 51.7592 37.0951 54.2742L37.1022 54.2813C39.6172 56.7962 43.6948 56.7962 46.2098 54.2813L76.4739 24.0171C78.9889 21.5021 78.9889 17.4245 76.4739 14.9096Z"
      fill="#E71D73"
    />
    <path
      d="M42.3903 50.84C43.4175 50.84 44.2503 50.0072 44.2503 48.98C44.2503 47.9527 43.4175 47.12 42.3903 47.12C41.363 47.12 40.5303 47.9527 40.5303 48.98C40.5303 50.0072 41.363 50.84 42.3903 50.84Z"
      fill="white"
    />
    <path
      d="M66.8001 67.57C68.4463 67.5753 70.0232 68.233 71.1854 69.3989C72.3475 70.5648 73.0001 72.1438 73.0001 73.79V81.32H60.5801V73.79C60.5801 72.9732 60.741 72.1644 61.0535 71.4097C61.3661 70.6551 61.8243 69.9694 62.4019 69.3918C62.9795 68.8142 63.6651 68.3561 64.4198 68.0435C65.1744 67.7309 65.9833 67.57 66.8001 67.57Z"
      fill="#E71D73"
    />
    <path
      d="M50.5199 80.58H83.0699C83.8205 80.58 84.5403 80.8782 85.0711 81.4089C85.6018 81.9396 85.8999 82.6594 85.8999 83.41V92.41H47.6899V83.41C47.6899 83.0384 47.7631 82.6704 47.9054 82.327C48.0476 81.9837 48.256 81.6717 48.5188 81.4089C48.7816 81.1461 49.0936 80.9376 49.4369 80.7954C49.7803 80.6532 50.1483 80.58 50.5199 80.58Z"
      fill="#0085C4"
    />
    <g
    // style="mix-blend-mode:multiply"
    >
      <path
        d="M83.0699 88.84H50.5199C49.7685 88.8426 49.0487 89.143 48.5182 89.6753C47.9878 90.2077 47.6899 90.9285 47.6899 91.68V94.74H85.9099V91.68C85.9099 90.9268 85.6107 90.2044 85.0781 89.6718C84.5455 89.1392 83.8232 88.84 83.0699 88.84Z"
        fill="#EDEDED"
      />
    </g>
    <path
      d="M72.0402 21.19C73.0674 21.19 73.9002 20.3573 73.9002 19.33C73.9002 18.3028 73.0674 17.47 72.0402 17.47C71.0129 17.47 70.1802 18.3028 70.1802 19.33C70.1802 20.3573 71.0129 21.19 72.0402 21.19Z"
      fill="white"
    />
    <path
      d="M66.7999 75.38C67.8272 75.38 68.6599 74.5472 68.6599 73.52C68.6599 72.4927 67.8272 71.66 66.7999 71.66C65.7727 71.66 64.9399 72.4927 64.9399 73.52C64.9399 74.5472 65.7727 75.38 66.7999 75.38Z"
      fill="white"
    />
    <path
      d="M96.8203 40.66C97.3947 40.66 97.8603 40.1944 97.8603 39.62C97.8603 39.0456 97.3947 38.58 96.8203 38.58C96.2459 38.58 95.7803 39.0456 95.7803 39.62C95.7803 40.1944 96.2459 40.66 96.8203 40.66Z"
      fill="white"
    />
    <path d="M104 77.94H89.5703V92.37H104V77.94Z" fill="#E71D73" />
    <path
      d="M87.0801 59.2V52.05L93.2001 46.39H100.41L106.53 52.05V59.2"
      stroke="#1D1D1B"
      strokeWidth="5"
      strokeLinecap="round"
      strokeLinejoin="round"
    />
    <path
      d="M115.58 92.16H26.1602V109.19H115.58V92.16Z"
      fill="white"
      stroke="#1D1D1B"
      strokeWidth="5"
      strokeLinecap="round"
      strokeLinejoin="round"
    />
    <path d="M73.0203 101.97H58.5903V116.4H73.0203V101.97Z" fill="#E71D73" />
    <path d="M52.68 101.97H38.25V116.4H52.68V101.97Z" fill="#E71D73" />
  </svg>