<svg
    width="142"
    height="142"
    viewBox="0 0 142 142"
    fill="none"
    xmlns="http://www.w3.org/2000/svg"
  >
    <path
      d="M105.37 83.4H36.37C34.8071 83.4 33.54 84.667 33.54 86.23V106.46C33.54 108.023 34.8071 109.29 36.37 109.29H105.37C106.933 109.29 108.2 108.023 108.2 106.46V86.23C108.2 84.667 106.933 83.4 105.37 83.4Z"
      fill="white"
      stroke="#1D1D1B"
      strokeWidth="5"
      strokeLinecap="round"
      strokeLinejoin="round"
    />
    <path
      d="M33.54 24.78V56.66"
      stroke="#1D1D1B"
      strokeWidth="5"
      strokeLinecap="round"
      strokeLinejoin="round"
    />
    <path
      d="M33.5401 26.78C34.7386 26.78 35.7101 25.8085 35.7101 24.61C35.7101 23.4115 34.7386 22.44 33.5401 22.44C32.3417 22.44 31.3701 23.4115 31.3701 24.61C31.3701 25.8085 32.3417 26.78 33.5401 26.78Z"
      stroke="#1D1D1B"
      strokeWidth="4.09"
      strokeLinecap="round"
      strokeLinejoin="round"
    />
    <path
      d="M35.1399 50.78C33.4293 50.78 31.7887 51.4596 30.5791 52.6692C29.3695 53.8788 28.6899 55.5194 28.6899 57.23V57.61C28.6899 59.3206 29.3695 60.9612 30.5791 62.1708C31.7887 63.3804 33.4293 64.06 35.1399 64.06H41.9999V50.78H35.1399Z"
      fill="#0D9BD8"
    />
    <path
      d="M108.2 24.78V56.66"
      stroke="#1D1D1B"
      strokeWidth="5"
      strokeLinecap="round"
      strokeLinejoin="round"
    />
    <path
      d="M108.2 26.78C109.398 26.78 110.37 25.8085 110.37 24.61C110.37 23.4115 109.398 22.44 108.2 22.44C107.001 22.44 106.03 23.4115 106.03 24.61C106.03 25.8085 107.001 26.78 108.2 26.78Z"
      stroke="#1D1D1B"
      strokeWidth="4.09"
      strokeLinecap="round"
      strokeLinejoin="round"
    />
    <path
      d="M106.59 50.78C108.302 50.78 109.943 51.4592 111.155 52.6686C112.366 53.8779 113.048 55.5184 113.05 57.23V57.61C113.048 59.3216 112.366 60.9621 111.155 62.1714C109.943 63.3808 108.302 64.06 106.59 64.06H99.7402V50.78H106.59Z"
      fill="#0D9BD8"
    />
    <path
      d="M99.2499 37.5H42.4799C40.9169 37.5 39.6499 38.767 39.6499 40.33V74.14C39.6499 75.703 40.9169 76.97 42.4799 76.97H99.2499C100.813 76.97 102.08 75.703 102.08 74.14V40.33C102.08 38.767 100.813 37.5 99.2499 37.5Z"
      fill="#E71D73"
    />
    <path
      d="M55.9299 63.4C60.906 63.4 64.9399 59.3661 64.9399 54.39C64.9399 49.4139 60.906 45.38 55.9299 45.38C50.9538 45.38 46.9199 49.4139 46.9199 54.39C46.9199 59.3661 50.9538 63.4 55.9299 63.4Z"
      fill="white"
    />
    <path
      d="M55.9301 58.47C58.1834 58.47 60.0101 56.6433 60.0101 54.39C60.0101 52.1367 58.1834 50.31 55.9301 50.31C53.6768 50.31 51.8501 52.1367 51.8501 54.39C51.8501 56.6433 53.6768 58.47 55.9301 58.47Z"
      fill="#0D9BD8"
    />
    <path
      d="M85.8 63.4C90.7761 63.4 94.81 59.3661 94.81 54.39C94.81 49.4139 90.7761 45.38 85.8 45.38C80.824 45.38 76.79 49.4139 76.79 54.39C76.79 59.3661 80.824 63.4 85.8 63.4Z"
      fill="white"
    />
    <path
      d="M85.8002 58.47C88.0535 58.47 89.8802 56.6433 89.8802 54.39C89.8802 52.1367 88.0535 50.31 85.8002 50.31C83.5469 50.31 81.7202 52.1367 81.7202 54.39C81.7202 56.6433 83.5469 58.47 85.8002 58.47Z"
      fill="#0D9BD8"
    />
    <path
      d="M72.9801 71.87H68.7301C68.1705 71.87 67.6338 71.6477 67.2381 71.252C66.8424 70.8563 66.6201 70.3196 66.6201 69.76V68.07H75.0901V69.73C75.0941 70.0096 75.0425 70.2872 74.9382 70.5467C74.8339 70.8061 74.6791 71.0423 74.4828 71.2414C74.2865 71.4405 74.0525 71.5986 73.7946 71.7066C73.5366 71.8145 73.2597 71.87 72.9801 71.87Z"
      fill="white"
    />
    <path d="M48.3001 90.24H41.0801V92.49H48.3001V90.24Z" fill="#0D9BD8" />
    <path d="M58.7698 90.24H51.5498V92.49H58.7698V90.24Z" fill="#0D9BD8" />
    <path d="M69.24 90.24H62.02V92.49H69.24V90.24Z" fill="#0D9BD8" />
    <path d="M79.7102 90.24H72.4902V92.49H79.7102V90.24Z" fill="#0D9BD8" />
    <path d="M90.18 90.24H82.96V92.49H90.18V90.24Z" fill="#0D9BD8" />
    <path d="M100.65 90.24H93.4302V92.49H100.65V90.24Z" fill="#0D9BD8" />
    <path d="M48.3001 95.22H41.0801V97.47H48.3001V95.22Z" fill="#0D9BD8" />
    <path d="M58.7698 95.22H51.5498V97.47H58.7698V95.22Z" fill="#0D9BD8" />
    <path d="M69.24 95.22H62.02V97.47H69.24V95.22Z" fill="#0D9BD8" />
    <path d="M79.7102 95.22H72.4902V97.47H79.7102V95.22Z" fill="#0D9BD8" />
    <path d="M90.18 95.22H82.96V97.47H90.18V95.22Z" fill="#0D9BD8" />
    <path d="M100.65 95.22H93.4302V97.47H100.65V95.22Z" fill="#0D9BD8" />
    <path d="M48.3001 100.2H41.0801V102.45H48.3001V100.2Z" fill="#0D9BD8" />
    <path d="M58.7698 100.2H51.5498V102.45H58.7698V100.2Z" fill="#0D9BD8" />
    <path d="M69.24 100.2H62.02V102.45H69.24V100.2Z" fill="#0D9BD8" />
    <path d="M79.7098 100.2H65.0498V102.45H79.7098V100.2Z" fill="#0D9BD8" />
    <path d="M90.18 100.2H82.96V102.45H90.18V100.2Z" fill="#0D9BD8" />
    <path d="M100.65 100.2H93.4302V102.45H100.65V100.2Z" fill="#0D9BD8" />
  </svg>