<svg
    width="142"
    height="142"
    viewBox="0 0 142 142"
    fill="none"
    xmlns="http://www.w3.org/2000/svg"
  >
    <path
      fillRule="evenodd"
      clipRule="evenodd"
      d="M42.7699 24.64H92.9399L101.84 33.34V107.42C101.84 107.793 101.766 108.162 101.624 108.507C101.481 108.851 101.272 109.164 101.008 109.428C100.744 109.692 100.431 109.901 100.087 110.044C99.7422 110.187 99.3729 110.26 98.9999 110.26H42.7699C42.0185 110.257 41.2987 109.957 40.7682 109.425C40.2378 108.892 39.9399 108.171 39.9399 107.42V27.48C39.9399 26.7285 40.2378 26.0077 40.7682 25.4753C41.2987 24.943 42.0185 24.6426 42.7699 24.64Z"
      fill="white"
      stroke="#1D1D1B"
      strokeWidth="5"
      strokeLinecap="round"
      strokeLinejoin="round"
    />
    <path
      fillRule="evenodd"
      clipRule="evenodd"
      d="M91.9102 34.41H99.3401L91.9102 27.14V34.41Z"
      fill="#0085C4"
    />
    <path
      d="M70.4898 74.14C80.79 74.14 89.1398 65.7901 89.1398 55.49C89.1398 45.1899 80.79 36.84 70.4898 36.84C60.1897 36.84 51.8398 45.1899 51.8398 55.49C51.8398 65.7901 60.1897 74.14 70.4898 74.14Z"
      stroke="#0285C5"
      strokeWidth="5"
      strokeMiterlimit="10"
      strokeLinecap="round"
    />
    <path
      d="M57.3102 68.68L50.4502 75.54"
      stroke="#0285C5"
      strokeWidth="5"
      strokeMiterlimit="10"
      strokeLinecap="round"
    />
    <path
      d="M47.2334 70.8778L55.1106 78.7549L36.7965 97.069C36.482 97.3834 36.1086 97.6328 35.6976 97.8026C35.2867 97.9725 34.8462 98.0596 34.4015 98.059C33.9568 98.0583 33.5166 97.9699 33.1061 97.7988C32.6956 97.6277 32.3229 97.3773 32.0094 97.0619L28.9193 93.9719C28.2855 93.338 27.9294 92.4783 27.9294 91.5818C27.9294 90.6854 28.2855 89.8257 28.9193 89.1918L47.2334 70.8778Z"
      fill="#E71D73"
    />
    <path
      d="M80.9601 55.35H60.3101"
      stroke="#E71D73"
      strokeWidth="5"
      strokeMiterlimit="10"
    />
    <path
      d="M70.6401 45.03V65.67"
      stroke="#E71D73"
      strokeWidth="5"
      strokeMiterlimit="10"
    />
    <path d="M95.2498 95.04H68.0698V117.09H95.2498V95.04Z" fill="#0085C4" />
    <path d="M75.3999 98.98H72.1299V103.07H75.3999V98.98Z" fill="white" />
    <path d="M75.3999 107.06H72.1299V111.15H75.3999V107.06Z" fill="white" />
    <path d="M81.6601 98.98H78.3901V103.07H81.6601V98.98Z" fill="white" />
    <path d="M81.6601 107.06H78.3901V111.15H81.6601V107.06Z" fill="white" />
    <path d="M86.6198 117.09H113.8V77.61H86.6198V117.09Z" fill="#E71D73" />
    <path d="M106.47 103.06H109.74V98.97H106.47V103.06Z" fill="white" />
    <path d="M106.47 111.16H109.74V107.07H106.47V111.16Z" fill="white" />
    <path d="M100.21 103.06H103.48V98.97H100.21V103.06Z" fill="white" />
    <path d="M100.21 111.16H103.48V107.07H100.21V111.16Z" fill="white" />
    <path d="M106.47 86.82H109.74V82.73H106.47V86.82Z" fill="white" />
    <path d="M106.47 94.91H109.74V90.82H106.47V94.91Z" fill="white" />
    <path d="M100.21 86.82H103.48V82.73H100.21V86.82Z" fill="white" />
    <path d="M100.21 94.91H103.48V90.82H100.21V94.91Z" fill="white" />
  </svg>