<svg
    width="142"
    height="142"
    viewBox="0 0 142 142"
    fill="none"
    xmlns="http://www.w3.org/2000/svg"
  >
    <path d="M82.9398 90.07H58.7998V104.08H82.9398V90.07Z" fill="#E71D73" />
    <path d="M106.58 41.49H35.1499V76.56H106.58V41.49Z" fill="#0D9BD8" />
    <path
      d="M114.16 42.43H27.5698V92.43H114.16V42.43Z"
      fill="#0B9AD7"
      stroke="#0B9AD7"
      strokeWidth="5"
      strokeLinecap="round"
      strokeLinejoin="round"
    />
    <path d="M114.16 34.02H27.5698V84.02H114.16V34.02Z" fill="white" />
    <path
      d="M114.16 34.02H27.5698V84.02H114.16V34.02Z"
      stroke="#1D1D1B"
      strokeWidth="5"
      strokeLinecap="round"
      strokeLinejoin="round"
    />
    <path
      d="M70.8701 92.73C71.9637 92.73 72.8501 91.8435 72.8501 90.75C72.8501 89.6565 71.9637 88.77 70.8701 88.77C69.7766 88.77 68.8901 89.6565 68.8901 90.75C68.8901 91.8435 69.7766 92.73 70.8701 92.73Z"
      fill="#EDEDED"
    />
    <path
      d="M49.4201 103H92.3101C93.0606 103 93.7805 103.298 94.3112 103.829C94.8419 104.36 95.1401 105.079 95.1401 105.83V107.75H46.5801V105.83C46.5801 105.458 46.6536 105.089 46.7965 104.745C46.9393 104.401 47.1486 104.088 47.4125 103.825C47.6763 103.562 47.9895 103.354 48.334 103.213C48.6785 103.071 49.0476 102.999 49.4201 103Z"
      fill="#0D9BD8"
    />
    <path d="M103.67 43.86H75.6001V48.56H103.67V43.86Z" fill="#E71D73" />
    <path d="M103.67 50.63H75.6001V55.33H103.67V50.63Z" fill="#E71D73" />
    <path d="M103.67 62.91H75.6001V74.18H103.67V62.91Z" fill="#E71D73" />
    <path d="M67.9201 43.84H37.5801V74.18H67.9201V43.84Z" fill="#E71D73" />
  </svg>