<svg
    width="142"
    height="142"
    viewBox="0 0 142 142"
    fill="none"
    xmlns="http://www.w3.org/2000/svg"
  >
    <path
      d="M43.2798 66.89V31.1C43.2785 30.7275 43.3507 30.3584 43.4923 30.0139C43.634 29.6694 43.8422 29.3563 44.1051 29.0924C44.3681 28.8286 44.6805 28.6192 45.0245 28.4764C45.3685 28.3335 45.7373 28.26 46.1098 28.26H104.9C105.651 28.2626 106.371 28.563 106.902 29.0953C107.432 29.6277 107.73 30.3485 107.73 31.1V67.56"
      fill="white"
    />
    <path
      d="M43.2798 66.89V31.1C43.2785 30.7275 43.3507 30.3584 43.4923 30.0139C43.634 29.6694 43.8422 29.3563 44.1051 29.0924C44.3681 28.8286 44.6805 28.6192 45.0245 28.4764C45.3685 28.3335 45.7373 28.26 46.1098 28.26H104.9C105.651 28.2626 106.371 28.563 106.902 29.0953C107.432 29.6277 107.73 30.3485 107.73 31.1V67.56"
      stroke="#1D1D1B"
      strokeWidth="5"
      strokeLinecap="round"
      strokeLinejoin="round"
    />
    <path
      d="M87.23 74.48V108.89C87.2313 109.262 87.1591 109.632 87.0175 109.976C86.8758 110.321 86.6676 110.634 86.4047 110.898C86.1417 111.161 85.8293 111.371 85.4853 111.514C85.1413 111.656 84.7725 111.73 84.4 111.73H35.88C35.5037 111.735 35.1301 111.666 34.7809 111.525C34.4317 111.385 34.1139 111.177 33.8459 110.912C33.5779 110.648 33.3652 110.333 33.2199 109.986C33.0747 109.639 33 109.266 33 108.89V72.43"
      fill="white"
    />
    <path
      d="M87.23 74.48V108.89C87.2313 109.262 87.1591 109.632 87.0175 109.976C86.8758 110.321 86.6676 110.634 86.4047 110.898C86.1417 111.161 85.8293 111.371 85.4853 111.514C85.1413 111.656 84.7725 111.73 84.4 111.73H35.88C35.5037 111.735 35.1301 111.666 34.7809 111.525C34.4317 111.385 34.1139 111.177 33.8459 110.912C33.5779 110.648 33.3652 110.333 33.2199 109.986C33.0747 109.639 33 109.266 33 108.89V72.43"
      stroke="#1D1D1B"
      strokeWidth="5"
      strokeLinecap="round"
      strokeLinejoin="round"
    />
    <path
      d="M25.2299 39.88H75.0899C75.9156 39.8826 76.7066 40.2125 77.2896 40.7974C77.8725 41.3822 78.1999 42.1743 78.1999 43V75.93C78.2012 76.3393 78.1217 76.7447 77.966 77.1232C77.8103 77.5017 77.5814 77.8457 77.2925 78.1356C77.0036 78.4254 76.6603 78.6554 76.2823 78.8123C75.9044 78.9692 75.4991 79.05 75.0899 79.05H45.9999V91.83L36.8199 79.05H25.2299C24.8201 79.05 24.4144 78.9693 24.0359 78.8125C23.6574 78.6557 23.3134 78.4259 23.0237 78.1362C22.734 77.8465 22.5042 77.5025 22.3474 77.124C22.1906 76.7454 22.1099 76.3397 22.1099 75.93V43C22.1099 42.1725 22.4386 41.3789 23.0237 40.7938C23.6088 40.2087 24.4024 39.88 25.2299 39.88Z"
      fill="#0085C4"
    />
    <path
      d="M116.5 61.52H66.6498C65.8223 61.52 65.0287 61.8487 64.4436 62.4338C63.8585 63.0189 63.5298 63.8125 63.5298 64.64V97.58C63.5324 98.4057 63.8623 99.1968 64.4471 99.7797C65.032 100.363 65.824 100.69 66.6498 100.69H95.7498V113.47L104.91 100.69H116.5C116.909 100.691 117.315 100.612 117.693 100.456C118.071 100.3 118.416 100.072 118.705 99.7826C118.995 99.4937 119.225 99.1504 119.382 98.7725C119.539 98.3945 119.62 97.9893 119.62 97.58V64.64C119.62 64.2303 119.539 63.8246 119.382 63.446C119.225 63.0675 118.996 62.7235 118.706 62.4338C118.416 62.1441 118.072 61.9143 117.694 61.7575C117.315 61.6007 116.91 61.52 116.5 61.52Z"
      fill="#E71D73"
    />
    <path d="M70.5899 47.91H29.8999V51.98H70.5899V47.91Z" fill="white" />
    <path d="M52.2699 57.11H29.8999V61.18H52.2699V57.11Z" fill="white" />
    <path d="M52.2699 66.32H29.8999V70.39H52.2699V66.32Z" fill="white" />
    <path d="M111.02 69.59H72.1299V73.66H111.02V69.59Z" fill="white" />
    <path d="M111.02 78.8H72.1299V82.87H111.02V78.8Z" fill="white" />
    <path d="M111.02 88H72.1299V92.07H111.02V88Z" fill="white" />
  </svg>