<svg
    width="142"
    height="142"
    viewBox="0 0 142 142"
    fill="none"
    xmlns="http://www.w3.org/2000/svg"
  >
    <path
      d="M112.98 54.38H28.76C27.3738 54.38 26.25 55.5038 26.25 56.89V112.27C26.25 113.656 27.3738 114.78 28.76 114.78H112.98C114.366 114.78 115.49 113.656 115.49 112.27V56.89C115.49 55.5038 114.366 54.38 112.98 54.38Z"
      fill="white"
      stroke="#1D1D1B"
      strokeWidth="5"
      strokeLinecap="round"
      strokeLinejoin="round"
    />
    <path
      d="M66.4902 63.63H38.4902V105.52H70.8702V66.74C70.8702 63.75 66.4902 63.63 66.4902 63.63Z"
      fill="#E71D73"
    />
    <path
      d="M75.2401 63.63H103.24V105.52H70.8701V66.74C70.8701 63.75 75.2401 63.63 75.2401 63.63Z"
      fill="#E71D73"
    />
    <path
      d="M38.5298 105.52L39.4498 102.76H66.4498C66.4498 102.76 69.6798 103.39 70.8298 105.52H38.5298Z"
      fill="#0085C4"
    />
    <path
      d="M103.2 105.52L102.28 102.76H75.2802C75.2802 102.76 72.0602 103.39 70.9102 105.52H103.2Z"
      fill="#0085C4"
    />
    <path d="M66.6 67.88H42.79V70H66.6V67.88Z" fill="white" />
    <path d="M66.6 83.52H42.79V85.64H66.6V83.52Z" fill="white" />
    <path d="M66.6 89.34H42.79V91.46H66.6V89.34Z" fill="white" />
    <path d="M66.6 95.16H42.79V97.28H66.6V95.16Z" fill="white" />
    <path d="M98.9399 67.88H83.6499V70H98.9399V67.88Z" fill="white" />
    <path d="M98.9399 83.52H83.6499V85.64H98.9399V83.52Z" fill="white" />
    <path d="M98.9399 89.34H83.6499V91.46H98.9399V89.34Z" fill="white" />
    <path d="M98.9399 95.16H83.6499V97.28H98.9399V95.16Z" fill="white" />
    <path
      d="M75.1302 63.76V101.38C75.1279 101.404 75.133 101.428 75.1448 101.449C75.1565 101.47 75.1744 101.488 75.196 101.498C75.2176 101.509 75.242 101.513 75.2659 101.51C75.2899 101.507 75.3122 101.496 75.3302 101.48C75.8002 101.11 76.8802 99.99 77.1902 99.67C77.2014 99.6572 77.2153 99.647 77.2308 99.64C77.2463 99.633 77.2631 99.6294 77.2802 99.6294C77.2972 99.6294 77.314 99.633 77.3295 99.64C77.3451 99.647 77.3589 99.6572 77.3702 99.67L79.2102 101.41C79.2268 101.429 79.2492 101.443 79.2739 101.448C79.2987 101.454 79.3246 101.452 79.348 101.442C79.3713 101.432 79.3909 101.414 79.4039 101.393C79.4168 101.371 79.4225 101.345 79.4202 101.32V63.76C79.4202 63.7255 79.4065 63.6925 79.3821 63.6681C79.3577 63.6437 79.3246 63.63 79.2902 63.63H75.2902C75.2707 63.6229 75.2496 63.6209 75.2291 63.6243C75.2086 63.6278 75.1894 63.6364 75.1732 63.6495C75.1571 63.6627 75.1447 63.6797 75.1371 63.6991C75.1296 63.7184 75.1272 63.7394 75.1302 63.76Z"
      fill="#0085C4"
    />
    <path
      d="M90.4998 34.22C90.4998 31.45 81.2998 29.22 69.9598 29.22C58.6198 29.22 49.4298 31.47 49.4298 34.22V50.46C49.42 50.5598 49.42 50.6602 49.4298 50.76C49.4199 50.9332 49.4199 51.1068 49.4298 51.28C49.4298 56.06 58.6198 59.94 69.9598 59.94C81.2998 59.94 90.4998 56.06 90.4998 51.28C90.5097 51.1068 90.5097 50.9332 90.4998 50.76C90.5096 50.6602 90.5096 50.5598 90.4998 50.46V34.22Z"
      fill="#0085C4"
    />
    <path
      d="M69.9599 18.42L37.6499 30.9L69.9599 43.39L102.27 30.9L69.9599 18.42Z"
      fill="#E71D73"
    />
    <path
      d="M69.96 30.9H101.96V40.05"
      stroke="#1D1D1B"
      strokeWidth="2.79"
      strokeLinecap="round"
      strokeLinejoin="round"
    />
    <path
      d="M100.66 48.11V44.11C100.689 43.7836 100.839 43.4798 101.08 43.2584C101.322 43.0371 101.638 42.9143 101.965 42.9143C102.293 42.9143 102.609 43.0371 102.85 43.2584C103.092 43.4798 103.242 43.7836 103.27 44.11V48.11H100.66Z"
      fill="#1D1D1B"
    />
    <path
      d="M104.21 41.16C104.21 41.6019 104.079 42.0338 103.833 42.401C103.587 42.7681 103.237 43.0539 102.829 43.2221C102.42 43.3903 101.971 43.4332 101.538 43.3456C101.104 43.2579 100.707 43.0435 100.396 42.7296C100.085 42.4158 99.8742 42.0165 99.7904 41.5827C99.7067 41.1488 99.7537 40.6998 99.9255 40.2927C100.097 39.8855 100.386 39.5387 100.756 39.2961C101.125 39.0534 101.558 38.926 102 38.93C102.292 38.9313 102.58 38.99 102.849 39.1028C103.118 39.2156 103.362 39.3802 103.567 39.5873C103.772 39.7944 103.934 40.0398 104.045 40.3097C104.155 40.5795 104.211 40.8685 104.21 41.16Z"
      fill="#1D1D1B"
    />
  </svg>